<svg xmlns="http://www.w3.org/2000/svg" xmlns:xlink="http://www.w3.org/1999/xlink" width="1366" zoomAndPan="magnify" viewBox="0 0 1024.5 576" height="768" preserveAspectRatio="xMidYMid meet" version="1.0"><defs><filter x="0%" y="0%" width="100%" height="100%" id="1a5896469f"><feColorMatrix values="0 0 0 0 1 0 0 0 0 1 0 0 0 0 1 0 0 0 1 0" color-interpolation-filters="sRGB"/></filter><clipPath id="6d5853e9f6"><path d="M 0 0.140625 L 1024 0.140625 L 1024 575.859375 L 0 575.859375 Z M 0 0.140625 " clip-rule="nonzero"/></clipPath><clipPath id="70db363d70"><path d="M 692 406 L 1024 406 L 1024 575.859375 L 692 575.859375 Z M 692 406 " clip-rule="nonzero"/></clipPath><clipPath id="32a0ce042d"><path d="M 1078.910156 538.140625 L 762.710938 758.332031 L 654.328125 602.691406 L 970.527344 382.503906 Z M 1078.910156 538.140625 " clip-rule="nonzero"/></clipPath><clipPath id="dd51f04d5e"><path d="M 1078.910156 538.140625 L 762.710938 758.332031 L 654.328125 602.691406 L 970.527344 382.503906 Z M 1078.910156 538.140625 " clip-rule="nonzero"/></clipPath><clipPath id="203fb02e7a"><path d="M 792.359375 306.488281 L 1023.65625 306.488281 L 1023.65625 575.859375 L 792.359375 575.859375 Z M 792.359375 306.488281 " clip-rule="nonzero"/></clipPath><clipPath id="c5102c0d01"><path d="M 0 516.199219 L 108.308594 516.199219 L 108.308594 575.859375 L 0 575.859375 Z M 0 516.199219 " clip-rule="nonzero"/></clipPath><clipPath id="cb440cf3d4"><path d="M 54.152344 516.199219 C 24.246094 516.199219 0 540.445312 0 570.351562 C 0 600.261719 24.246094 624.507812 54.152344 624.507812 C 84.0625 624.507812 108.308594 600.261719 108.308594 570.351562 C 108.308594 540.445312 84.0625 516.199219 54.152344 516.199219 Z M 54.152344 516.199219 " clip-rule="nonzero"/></clipPath><clipPath id="4961528daf"><path d="M 933.222656 87.191406 L 979.285156 87.191406 L 979.285156 133.253906 L 933.222656 133.253906 Z M 933.222656 87.191406 " clip-rule="nonzero"/></clipPath><clipPath id="5a7165c855"><path d="M 956.253906 87.191406 C 943.535156 87.191406 933.222656 97.503906 933.222656 110.222656 C 933.222656 122.945312 943.535156 133.253906 956.253906 133.253906 C 968.972656 133.253906 979.285156 122.945312 979.285156 110.222656 C 979.285156 97.503906 968.972656 87.191406 956.253906 87.191406 Z M 956.253906 87.191406 " clip-rule="nonzero"/></clipPath><mask id="5fa753fba7"><g filter="url(#1a5896469f)"><rect x="-102.45" width="1229.4" fill="#000000" y="-57.6" height="691.2" fill-opacity="0.1"/></g></mask><clipPath id="c68b230a83"><path d="M 9 6 L 44 6 L 44 46 L 9 46 Z M 9 6 " clip-rule="nonzero"/></clipPath><clipPath id="bad7eb772a"><path d="M 20.15625 0.773438 L 50.964844 20.777344 L 32.1875 49.699219 L 1.378906 29.695312 Z M 20.15625 0.773438 " clip-rule="nonzero"/></clipPath><clipPath id="1d6ca423aa"><path d="M 20.15625 0.773438 L 50.964844 20.777344 L 32.1875 49.699219 L 1.378906 29.695312 Z M 20.15625 0.773438 " clip-rule="nonzero"/></clipPath><clipPath id="5cc4bf368b"><path d="M 20.15625 0.773438 L 50.964844 20.777344 L 32.1875 49.699219 L 1.378906 29.695312 Z M 20.15625 0.773438 " clip-rule="nonzero"/></clipPath><clipPath id="2c4261fdd4"><rect x="0" width="52" y="0" height="51"/></clipPath><mask id="b098327c52"><g filter="url(#1a5896469f)"><rect x="-102.45" width="1229.4" fill="#000000" y="-57.6" height="691.2" fill-opacity="0.1"/></g></mask><clipPath id="42f49fb882"><path d="M 8 7 L 45 7 L 45 45 L 8 45 Z M 8 7 " clip-rule="nonzero"/></clipPath><clipPath id="397784fc95"><path d="M 50.089844 29.394531 L 19.882812 50.292969 L 0.265625 21.933594 L 30.472656 1.035156 Z M 50.089844 29.394531 " clip-rule="nonzero"/></clipPath><clipPath id="b22ee1e1fb"><path d="M 0.277344 21.765625 L 30.484375 0.871094 L 50.101562 29.230469 L 19.894531 50.125 Z M 0.277344 21.765625 " clip-rule="nonzero"/></clipPath><clipPath id="d1fa8bd81e"><path d="M 0.277344 21.765625 L 30.484375 0.871094 L 50.101562 29.230469 L 19.894531 50.125 Z M 0.277344 21.765625 " clip-rule="nonzero"/></clipPath><clipPath id="8e8be49adf"><rect x="0" width="51" y="0" height="51"/></clipPath><clipPath id="5991f8a254"><path d="M 0 247 L 29 247 L 29 367 L 0 367 Z M 0 247 " clip-rule="nonzero"/></clipPath><clipPath id="6acd5533b2"><path d="M -68.472656 242.046875 L 39.238281 256.628906 L 23.851562 370.289062 L -83.863281 355.703125 Z M -68.472656 242.046875 " clip-rule="nonzero"/></clipPath><clipPath id="80a4c9c2bc"><path d="M -68.472656 242.046875 L 39.238281 256.628906 L 23.851562 370.289062 L -83.863281 355.703125 Z M -68.472656 242.046875 " clip-rule="nonzero"/></clipPath><clipPath id="e0983e1001"><path d="M 553 0.140625 L 627 0.140625 L 627 31 L 553 31 Z M 553 0.140625 " clip-rule="nonzero"/></clipPath><clipPath id="c9404c92dd"><path d="M 580.441406 42.859375 L 541.851562 -6.898438 L 593.980469 -47.328125 L 632.570312 2.433594 Z M 580.441406 42.859375 " clip-rule="nonzero"/></clipPath><clipPath id="ac192bf51c"><path d="M 580.441406 42.859375 L 541.851562 -6.898438 L 593.980469 -47.328125 L 632.570312 2.433594 Z M 580.441406 42.859375 " clip-rule="nonzero"/></clipPath><clipPath id="e666950387"><path d="M 182 531 L 299 531 L 299 575.859375 L 182 575.859375 Z M 182 531 " clip-rule="nonzero"/></clipPath><clipPath id="5dd3d6ef6d"><path d="M 192.230469 656.933594 L 168.886719 550.003906 L 281.671875 525.378906 L 305.019531 632.308594 Z M 192.230469 656.933594 " clip-rule="nonzero"/></clipPath><clipPath id="c22c666f09"><path d="M 192.230469 656.933594 L 168.886719 550.003906 L 281.671875 525.378906 L 305.019531 632.308594 Z M 192.230469 656.933594 " clip-rule="nonzero"/></clipPath><mask id="f2e6331f61"><g filter="url(#1a5896469f)"><rect x="-102.45" width="1229.4" fill="#000000" y="-57.6" height="691.2" fill-opacity="0.1"/></g></mask><clipPath id="5c27f30849"><path d="M 8 6 L 45 6 L 45 44 L 8 44 Z M 8 6 " clip-rule="nonzero"/></clipPath><clipPath id="175ae27230"><path d="M 50.078125 28.660156 L 19.871094 49.554688 L 0.253906 21.195312 L 30.460938 0.300781 Z M 50.078125 28.660156 " clip-rule="nonzero"/></clipPath><clipPath id="8fc72f071e"><path d="M 0.265625 21.03125 L 30.476562 0.132812 L 50.09375 28.492188 L 19.882812 49.390625 Z M 0.265625 21.03125 " clip-rule="nonzero"/></clipPath><clipPath id="ccfb3fa8b4"><path d="M 0.265625 21.03125 L 30.476562 0.132812 L 50.09375 28.492188 L 19.882812 49.390625 Z M 0.265625 21.03125 " clip-rule="nonzero"/></clipPath><clipPath id="99c2d684ad"><rect x="0" width="51" y="0" height="51"/></clipPath><mask id="2aff36a517"><g filter="url(#1a5896469f)"><rect x="-102.45" width="1229.4" fill="#000000" y="-57.6" height="691.2" fill-opacity="0.1"/></g></mask><clipPath id="6594426dd6"><path d="M 4 3 L 40 3 L 40 40 L 4 40 Z M 4 3 " clip-rule="nonzero"/></clipPath><clipPath id="13d3d3b5b9"><path d="M 44.542969 34 L 8.949219 43.070312 L 0.433594 9.65625 L 36.027344 0.585938 Z M 44.542969 34 " clip-rule="nonzero"/></clipPath><clipPath id="48ac062bd3"><path d="M 0.503906 9.507812 L 36.097656 0.433594 L 44.613281 33.847656 L 9.019531 42.921875 Z M 0.503906 9.507812 " clip-rule="nonzero"/></clipPath><clipPath id="689ee8806c"><path d="M 0.503906 9.507812 L 36.097656 0.433594 L 44.613281 33.847656 L 9.019531 42.921875 Z M 0.503906 9.507812 " clip-rule="nonzero"/></clipPath><clipPath id="56c51fdc56"><rect x="0" width="45" y="0" height="44"/></clipPath><mask id="cd4dfbf75a"><g filter="url(#1a5896469f)"><rect x="-102.45" width="1229.4" fill="#000000" y="-57.6" height="691.2" fill-opacity="0.1"/></g></mask><clipPath id="cca2805d43"><path d="M 7 4 L 42 4 L 42 42 L 7 42 Z M 7 4 " clip-rule="nonzero"/></clipPath><clipPath id="cdde749f09"><path d="M 35.304688 45.066406 L 0.53125 33.234375 L 11.640625 0.589844 L 46.414062 12.421875 Z M 35.304688 45.066406 " clip-rule="nonzero"/></clipPath><clipPath id="c0ca410a6e"><path d="M 11.78125 0.5 L 46.554688 12.335938 L 35.445312 44.980469 L 0.671875 33.144531 Z M 11.78125 0.5 " clip-rule="nonzero"/></clipPath><clipPath id="701b415cd9"><path d="M 11.78125 0.5 L 46.554688 12.335938 L 35.445312 44.980469 L 0.671875 33.144531 Z M 11.78125 0.5 " clip-rule="nonzero"/></clipPath><clipPath id="572868dc1e"><rect x="0" width="47" y="0" height="46"/></clipPath><mask id="75cd9beb62"><g filter="url(#1a5896469f)"><rect x="-102.45" width="1229.4" fill="#000000" y="-57.6" height="691.2" fill-opacity="0.1"/></g></mask><clipPath id="097db0aaf3"><path d="M 7 4 L 42 4 L 42 42 L 7 42 Z M 7 4 " clip-rule="nonzero"/></clipPath><clipPath id="78de1225de"><path d="M 35.003906 44.707031 L 0.230469 32.871094 L 11.339844 0.226562 L 46.113281 12.0625 Z M 35.003906 44.707031 " clip-rule="nonzero"/></clipPath><clipPath id="8f5ad4b59b"><path d="M 11.480469 0.140625 L 46.253906 11.972656 L 35.144531 44.617188 L 0.371094 32.785156 Z M 11.480469 0.140625 " clip-rule="nonzero"/></clipPath><clipPath id="57ebb25a42"><path d="M 11.480469 0.140625 L 46.253906 11.972656 L 35.144531 44.617188 L 0.371094 32.785156 Z M 11.480469 0.140625 " clip-rule="nonzero"/></clipPath><clipPath id="63a5f67261"><rect x="0" width="47" y="0" height="46"/></clipPath><clipPath id="4148fa24ac"><path d="M 785.589844 0.140625 L 1024 0.140625 L 1024 152.671875 L 785.589844 152.671875 Z M 785.589844 0.140625 " clip-rule="nonzero"/></clipPath><clipPath id="309f5312e2"><path d="M 0 0.140625 L 315 0.140625 L 315 81 L 0 81 Z M 0 0.140625 " clip-rule="nonzero"/></clipPath><clipPath id="52b893b913"><path d="M 340.503906 -79.652344 L 24.304688 140.539062 L -84.074219 -15.101562 L 232.121094 -235.292969 Z M 340.503906 -79.652344 " clip-rule="nonzero"/></clipPath><clipPath id="33d2cfe437"><path d="M 340.503906 -79.652344 L 24.304688 140.539062 L -84.074219 -15.101562 L 232.121094 -235.292969 Z M 340.503906 -79.652344 " clip-rule="nonzero"/></clipPath><clipPath id="9ed4aaf8db"><path d="M 0 0.140625 L 162.921875 0.140625 L 162.921875 245.804688 L 0 245.804688 Z M 0 0.140625 " clip-rule="nonzero"/></clipPath></defs><g clip-path="url(#6d5853e9f6)"><path fill="#ffffff" d="M 0 0.140625 L 1024 0.140625 L 1024 575.859375 L 0 575.859375 Z M 0 0.140625 " fill-opacity="1" fill-rule="nonzero"/><path fill="#ffffff" d="M 0 0.140625 L 1024 0.140625 L 1024 575.859375 L 0 575.859375 Z M 0 0.140625 " fill-opacity="1" fill-rule="nonzero"/></g><g clip-path="url(#70db363d70)"><g clip-path="url(#32a0ce042d)"><g clip-path="url(#dd51f04d5e)"><path fill="#ffb246" d="M 1040.832031 551.972656 C 1025.257812 575.300781 999.25 590.128906 972.148438 597.359375 C 961.347656 600.242188 950.285156 602.046875 939.476562 604.886719 C 928.667969 607.726562 917.964844 611.695312 909.019531 618.394531 C 899.9375 625.203125 893.070312 634.515625 886.863281 644.023438 C 880.660156 653.527344 874.9375 663.417969 867.542969 672.03125 C 858.828125 682.175781 847.726562 690.449219 835.089844 694.828125 C 822.453125 699.207031 808.253906 699.515625 795.800781 694.636719 C 784.066406 690.042969 774.304688 681.152344 762.335938 677.207031 C 749.246094 672.890625 734.964844 674.925781 721.339844 672.875 C 714.523438 671.847656 707.734375 669.71875 702.222656 665.585938 C 699.46875 663.515625 697.0625 660.957031 695.304688 657.996094 C 693.546875 655.03125 692.449219 651.65625 692.289062 648.214844 C 692.113281 644.453125 693.054688 640.683594 694.691406 637.289062 C 696.332031 633.894531 698.644531 630.859375 701.253906 628.140625 C 706.46875 622.699219 712.824219 618.503906 718.488281 613.53125 C 734.773438 599.230469 744.632812 579.226562 756.578125 561.144531 C 771.046875 539.246094 789.867188 519.089844 814.214844 509.292969 C 822.953125 505.777344 832.183594 503.683594 841.238281 501.082031 C 850.289062 498.484375 859.328125 495.300781 867.046875 489.90625 C 879.722656 481.050781 887.71875 467.101562 895.144531 453.539062 C 899.234375 446.066406 903.289062 438.546875 908.234375 431.609375 C 913.179688 424.671875 919.066406 418.292969 926.230469 413.683594 C 933.394531 409.074219 941.921875 406.324219 950.421875 406.917969 C 954.667969 407.21875 958.871094 408.351562 962.632812 410.355469 C 966.390625 412.355469 969.699219 415.234375 972.09375 418.753906 C 974.453125 422.222656 975.894531 426.242188 976.832031 430.332031 C 977.773438 434.417969 978.234375 438.59375 978.785156 442.753906 C 979.335938 446.910156 979.980469 451.078125 981.273438 455.066406 C 982.566406 459.054688 984.535156 462.886719 987.460938 465.894531 C 990.125 468.632812 993.503906 470.609375 997.070312 471.984375 C 1000.636719 473.359375 1004.398438 474.152344 1008.171875 474.761719 C 1015.71875 475.976562 1023.515625 476.503906 1030.511719 479.582031 C 1036.878906 482.378906 1042.269531 487.230469 1046.011719 493.089844 C 1049.753906 498.949219 1051.875 505.785156 1052.441406 512.71875 C 1053.574219 526.578125 1048.554688 540.410156 1040.832031 551.972656 Z M 1040.832031 551.972656 " fill-opacity="1" fill-rule="nonzero"/></g></g></g><g clip-path="url(#203fb02e7a)"><path fill="#b77cd7" d="M 1023.574219 306.375 C 1023.988281 306.980469 1023.914062 307.515625 1023.914062 308.035156 C 1023.914062 397.050781 1023.914062 486.066406 1023.914062 575.082031 C 1023.914062 577.511719 1023.90625 577.511719 1021.484375 577.511719 C 945.5625 577.511719 869.648438 577.511719 793.730469 577.503906 C 793.222656 577.503906 792.488281 577.761719 792.261719 577.332031 C 791.996094 576.84375 792.554688 576.304688 792.871094 575.863281 C 794.828125 573.140625 796.382812 570.167969 798.191406 567.359375 C 799.949219 564.625 801.601562 561.800781 803.484375 559.152344 C 804.800781 557.296875 806.117188 555.4375 807.675781 553.738281 C 809.652344 551.582031 811.320312 549.148438 813.144531 546.855469 C 815.609375 543.761719 818.574219 541.164062 821.542969 538.585938 C 823.117188 537.214844 824.675781 535.796875 826.414062 534.65625 C 829.023438 532.945312 831.617188 531.1875 834.320312 529.613281 C 837.519531 527.746094 840.835938 526.085938 844.21875 524.640625 C 847.570312 523.207031 850.921875 521.761719 854.351562 520.492188 C 859.179688 518.703125 863.816406 516.417969 868.621094 514.570312 C 871.433594 513.488281 874.222656 512.320312 877.082031 511.390625 C 880.085938 510.410156 882.855469 508.898438 885.832031 507.921875 C 888.675781 506.988281 891.285156 505.515625 894.078125 504.523438 C 897.949219 503.144531 901.660156 501.394531 905.414062 499.769531 C 909.167969 498.148438 912.875 496.375 916.511719 494.464844 C 918.976562 493.171875 921.339844 491.726562 923.707031 490.304688 C 926.3125 488.738281 928.800781 486.960938 931.195312 485.054688 C 934.816406 482.171875 938.296875 479.136719 941.5625 475.871094 C 943.988281 473.445312 946.253906 470.863281 948.460938 468.234375 C 951.4375 464.6875 953.953125 460.808594 956.238281 456.816406 C 958.503906 452.867188 960.402344 448.710938 961.917969 444.390625 C 963.371094 440.257812 964.707031 436.078125 966.054688 431.914062 C 966.871094 429.378906 967.582031 426.765625 968.191406 424.152344 C 968.425781 423.140625 968.855469 422.171875 969.105469 421.160156 C 970.269531 416.375 971.0625 411.503906 972.402344 406.757812 C 972.847656 405.183594 972.992188 403.523438 973.402344 401.9375 C 974.046875 399.453125 974.695312 396.960938 975.535156 394.539062 C 976.511719 391.726562 977.035156 388.792969 978.046875 385.992188 C 979.816406 381.085938 981.109375 376.023438 982.90625 371.113281 C 984.023438 368.066406 985.375 365.105469 986.367188 362.023438 C 987.601562 358.171875 989.394531 354.566406 991.046875 350.914062 C 992.621094 347.441406 994.339844 344.023438 996.171875 340.664062 C 998.765625 335.910156 1001.941406 331.5625 1005.128906 327.222656 C 1006.625 325.191406 1008.335938 323.320312 1009.824219 321.285156 C 1013.820312 315.816406 1018.730469 311.210938 1023.574219 306.375 Z M 1023.574219 306.375 " fill-opacity="1" fill-rule="nonzero"/></g><g clip-path="url(#c5102c0d01)"><g clip-path="url(#cb440cf3d4)"><path fill="#ffb246" d="M 0 516.199219 L 108.308594 516.199219 L 108.308594 624.507812 L 0 624.507812 Z M 0 516.199219 " fill-opacity="1" fill-rule="nonzero"/></g></g><g clip-path="url(#4961528daf)"><g clip-path="url(#5a7165c855)"><path fill="#ffb246" d="M 933.222656 87.191406 L 979.285156 87.191406 L 979.285156 133.253906 L 933.222656 133.253906 Z M 933.222656 87.191406 " fill-opacity="1" fill-rule="nonzero"/></g></g><g mask="url(#5fa753fba7)"><g transform="matrix(1, 0, 0, 1, 71, 461)"><g clip-path="url(#2c4261fdd4)"><g clip-path="url(#c68b230a83)"><g clip-path="url(#bad7eb772a)"><g clip-path="url(#1d6ca423aa)"><g clip-path="url(#5cc4bf368b)"><path fill="#000000" d="M 40.984375 14.335938 C 40.921875 14.296875 40.855469 14.257812 40.789062 14.222656 C 37.949219 13 34.804688 14.773438 33.0625 17.003906 C 31.375 18.957031 30.535156 22.335938 32.59375 24.355469 C 32.894531 24.644531 33.273438 24.847656 33.667969 24.976562 C 37.144531 25.878906 40.605469 23.347656 42 20.296875 C 43.046875 18.417969 42.953125 15.578125 40.984375 14.335938 Z M 30.082031 7.421875 C 28.46875 6.429688 26.195312 7.226562 24.964844 8.566406 C 22.5 11.203125 21.460938 15.789062 23.976562 18.761719 C 24.226562 19.015625 24.523438 19.21875 24.851562 19.363281 C 27.1875 20.386719 29.609375 18.613281 30.753906 16.65625 C 32.320312 14.113281 32.890625 10.363281 30.726562 7.960938 C 30.53125 7.742188 30.3125 7.5625 30.082031 7.421875 Z M 42.335938 27.40625 C 39.480469 25.785156 35.832031 27.285156 33.910156 29.65625 C 32.355469 31.253906 31.75 34.34375 33.761719 35.859375 C 36.71875 37.726562 40.746094 35.910156 42.574219 33.285156 C 43.910156 31.628906 44.257812 28.792969 42.335938 27.40625 Z M 17.898438 12.398438 C 16.738281 11.632812 15.136719 11.582031 13.988281 12.511719 C 10.917969 15.007812 10.367188 20.335938 13.304688 23.183594 C 14.554688 24.335938 16.484375 24.0625 17.667969 23 C 20.199219 20.722656 20.761719 16.535156 19.007812 13.617188 C 18.742188 13.113281 18.351562 12.703125 17.898438 12.398438 Z M 26.539062 26.054688 C 24.242188 24.574219 21.167969 24.21875 18.566406 24.972656 C 15.664062 25.9375 12.835938 27.417969 10.679688 29.613281 C 8.875 31.027344 8.929688 34.042969 10.878906 35.324219 C 13.195312 36.921875 16.261719 36.628906 18.683594 38.03125 C 20.867188 39.019531 21.980469 41.203125 23.332031 43.035156 C 24.433594 44.671875 26.699219 45.789062 28.53125 44.667969 C 30.21875 43.40625 30.46875 41.050781 30.679688 39.09375 C 30.710938 35.71875 30.714844 32.148438 29.191406 29.039062 C 28.589844 27.773438 27.660156 26.78125 26.539062 26.054688 Z M 26.539062 26.054688 " fill-opacity="1" fill-rule="nonzero"/></g></g></g></g></g></g></g><g mask="url(#b098327c52)"><g transform="matrix(1, 0, 0, 1, 47, 193)"><g clip-path="url(#8e8be49adf)"><g clip-path="url(#42f49fb882)"><g clip-path="url(#397784fc95)"><g clip-path="url(#b22ee1e1fb)"><g clip-path="url(#d1fa8bd81e)"><path fill="#000000" d="M 20.738281 7.65625 C 20.675781 7.699219 20.613281 7.746094 20.554688 7.792969 C 18.347656 9.957031 18.789062 13.539062 20.195312 15.996094 C 21.359375 18.304688 24.164062 20.363281 26.816406 19.226562 C 27.199219 19.054688 27.53125 18.785156 27.796875 18.464844 C 29.953125 15.59375 28.925781 11.433594 26.632812 8.980469 C 25.296875 7.300781 22.632812 6.308594 20.738281 7.65625 Z M 10.199219 15.113281 C 8.667969 16.226562 8.539062 18.636719 9.3125 20.28125 C 10.8125 23.5625 14.664062 26.265625 18.367188 25.070312 C 18.695312 24.933594 18.996094 24.734375 19.257812 24.492188 C 21.089844 22.714844 20.371094 19.800781 18.996094 18 C 17.234375 15.585938 13.988281 13.636719 10.941406 14.71875 C 10.664062 14.820312 10.417969 14.953125 10.199219 15.113281 Z M 33.339844 11.375 C 30.757812 13.398438 30.757812 17.34375 32.21875 20.019531 C 33.105469 22.0625 35.734375 23.800781 37.898438 22.515625 C 40.753906 20.488281 40.601562 16.074219 38.867188 13.386719 C 37.84375 11.519531 35.351562 10.125 33.339844 11.375 Z M 10.171875 28.273438 C 9.019531 29.058594 8.363281 30.519531 8.789062 31.933594 C 9.933594 35.722656 14.652344 38.253906 18.402344 36.621094 C 19.941406 35.902344 20.425781 34.015625 19.890625 32.515625 C 18.746094 29.308594 15.085938 27.199219 11.722656 27.710938 C 11.152344 27.765625 10.625 27.96875 10.171875 28.273438 Z M 26.089844 25.472656 C 23.84375 27.03125 22.347656 29.742188 22.058594 32.433594 C 21.847656 35.484375 22.140625 38.664062 23.351562 41.492188 C 23.976562 43.699219 26.78125 44.792969 28.710938 43.476562 C 31.066406 41.945312 31.960938 38.992188 34.179688 37.285156 C 35.925781 35.644531 38.367188 35.441406 40.578125 34.890625 C 42.507812 34.492188 44.402344 32.820312 44.058594 30.699219 C 43.535156 28.660156 41.453125 27.535156 39.722656 26.597656 C 36.609375 25.285156 33.308594 23.925781 29.855469 24.152344 C 28.457031 24.226562 27.183594 24.710938 26.089844 25.472656 Z M 26.089844 25.472656 " fill-opacity="1" fill-rule="nonzero"/></g></g></g></g></g></g></g><g clip-path="url(#5991f8a254)"><g clip-path="url(#6acd5533b2)"><g clip-path="url(#80a4c9c2bc)"><path fill="#b77cd7" d="M -6.175781 366.425781 C -6.371094 366.398438 -6.566406 366.371094 -6.761719 366.34375 C -7.617188 366.226562 -8.472656 366.113281 -9.324219 366 C -10.132812 365.898438 -10.890625 365.617188 -11.648438 365.34375 C -13.488281 364.679688 -15.296875 363.921875 -17.039062 363.023438 C -18.210938 362.421875 -19.347656 361.757812 -20.476562 361.074219 C -23.023438 359.523438 -25.480469 357.828125 -28.082031 356.367188 C -29.75 355.429688 -31.488281 354.65625 -33.332031 354.125 C -34.21875 353.871094 -35.105469 353.636719 -36.007812 353.453125 C -36.542969 353.347656 -37.070312 353.210938 -37.613281 353.171875 C -38.628906 353.097656 -39.640625 353.03125 -40.664062 353.011719 C -41.847656 352.992188 -43.027344 353.019531 -44.207031 353.0625 C -45.175781 353.097656 -46.144531 353.195312 -47.105469 353.308594 C -48.871094 353.515625 -50.628906 353.800781 -52.367188 354.171875 C -54.414062 354.613281 -56.472656 354.960938 -58.554688 355.148438 C -59.671875 355.246094 -60.78125 355.242188 -61.902344 355.191406 C -63.308594 355.125 -64.691406 354.914062 -66.074219 354.699219 C -67.914062 354.414062 -69.632812 353.769531 -71.210938 352.769531 C -71.863281 352.351562 -72.492188 351.902344 -73.113281 351.441406 C -73.710938 350.992188 -74.203125 350.4375 -74.703125 349.890625 C -75.191406 349.355469 -75.652344 348.796875 -76.089844 348.21875 C -77.046875 346.960938 -77.773438 345.578125 -78.386719 344.136719 C -79.359375 341.851562 -79.996094 339.464844 -80.394531 337.015625 C -80.589844 335.816406 -80.652344 334.601562 -80.605469 333.378906 C -80.585938 332.96875 -80.566406 332.558594 -80.523438 332.148438 C -80.386719 331.535156 -80.398438 330.910156 -80.367188 330.289062 C -80.328125 329.582031 -80.011719 328.921875 -79.992188 328.210938 C -79.816406 327.238281 -79.507812 326.296875 -79.195312 325.363281 C -78.816406 324.222656 -78.421875 323.089844 -77.90625 322 C -77.417969 320.96875 -76.867188 319.976562 -76.273438 319.007812 C -75.703125 318.078125 -75.128906 317.152344 -74.507812 316.257812 C -73.25 314.441406 -71.933594 312.664062 -70.574219 310.921875 C -69.339844 309.335938 -68.148438 307.714844 -66.910156 306.125 C -65.824219 304.730469 -64.796875 303.296875 -63.832031 301.816406 C -62.601562 299.921875 -61.472656 297.96875 -60.667969 295.84375 C -60.25 294.75 -59.910156 293.640625 -59.632812 292.5 C -59.421875 291.644531 -59.292969 290.78125 -59.226562 289.914062 C -59.15625 288.980469 -59.074219 288.046875 -59.09375 287.105469 C -59.113281 286.152344 -59.050781 285.199219 -59.042969 284.246094 C -59.03125 283.410156 -59.042969 282.570312 -59.046875 281.730469 C -59.054688 280.710938 -59.070312 279.695312 -59.082031 278.675781 C -59.089844 277.804688 -59.101562 276.933594 -59.097656 276.0625 C -59.09375 275.40625 -59.101562 274.746094 -59.046875 274.089844 C -58.925781 272.679688 -58.898438 271.257812 -58.675781 269.859375 C -58.199219 266.875 -57.339844 264.019531 -55.800781 261.398438 C -54.988281 260.015625 -54.035156 258.730469 -53.015625 257.496094 C -52.078125 256.363281 -51.042969 255.328125 -49.898438 254.398438 C -48.433594 253.210938 -46.84375 252.230469 -45.1875 251.335938 C -42.859375 250.074219 -40.351562 249.316406 -37.796875 248.714844 C -35.824219 248.25 -33.835938 247.855469 -31.8125 247.675781 C -30.847656 247.59375 -29.878906 247.550781 -28.90625 247.589844 C -27.703125 247.636719 -26.507812 247.726562 -25.316406 247.890625 C -24.335938 248.027344 -23.378906 248.253906 -22.414062 248.460938 C -21.574219 248.640625 -20.753906 248.878906 -19.933594 249.117188 C -18.964844 249.398438 -18.046875 249.800781 -17.152344 250.253906 C -15.882812 250.894531 -14.691406 251.664062 -13.539062 252.496094 C -12.527344 253.234375 -11.539062 254.007812 -10.527344 254.742188 C -9.578125 255.433594 -8.585938 256.058594 -7.609375 256.703125 C -6.007812 257.761719 -4.292969 258.597656 -2.550781 259.386719 C -1.199219 260.003906 0.214844 260.433594 1.617188 260.90625 C 2.246094 261.117188 2.910156 261.3125 3.601562 261.234375 C 3.730469 261.21875 3.867188 261.253906 3.996094 261.273438 C 4.847656 261.382812 5.699219 261.5 6.550781 261.609375 C 7.695312 261.757812 8.816406 262.011719 9.945312 262.246094 C 10.816406 262.425781 11.683594 262.621094 12.542969 262.84375 C 13.734375 263.148438 14.894531 263.574219 16.03125 264.0625 C 17.441406 264.671875 18.8125 265.351562 20.085938 266.210938 C 21.535156 267.1875 22.945312 268.230469 24.167969 269.488281 C 25.597656 270.964844 26.523438 272.726562 27.066406 274.707031 C 27.394531 275.90625 27.621094 277.117188 27.613281 278.359375 C 27.601562 279.527344 27.46875 280.6875 27.203125 281.835938 C 26.757812 283.792969 25.84375 285.539062 24.902344 287.277344 C 23.859375 289.191406 22.96875 291.171875 22.265625 293.234375 C 22.011719 293.976562 21.804688 294.746094 21.710938 295.535156 C 21.597656 296.46875 21.441406 297.398438 21.347656 298.335938 C 21.265625 299.136719 21.277344 299.945312 21.269531 300.75 C 21.261719 301.835938 21.304688 302.921875 21.367188 304.003906 C 21.449219 305.402344 21.558594 306.800781 21.859375 308.167969 C 22.242188 309.921875 22.671875 311.667969 23.101562 313.414062 C 23.273438 314.117188 23.476562 314.8125 23.699219 315.503906 C 24.109375 316.792969 24.539062 318.078125 24.96875 319.359375 C 25.46875 320.847656 25.992188 322.324219 26.472656 323.816406 C 27.085938 325.714844 27.71875 327.609375 28.066406 329.582031 C 28.367188 331.269531 28.585938 332.96875 28.589844 334.683594 C 28.59375 335.785156 28.550781 336.890625 28.375 337.984375 C 28.269531 338.769531 28.164062 339.558594 28.054688 340.347656 C 27.589844 343.34375 26.335938 345.992188 24.511719 348.394531 C 23.417969 349.832031 22.117188 351.058594 20.742188 352.222656 C 19.46875 353.292969 18.195312 354.371094 16.839844 355.332031 C 15.800781 356.066406 14.777344 356.816406 13.789062 357.613281 C 12.503906 358.648438 11.242188 359.707031 9.929688 360.707031 C 8.683594 361.652344 7.371094 362.5 6.007812 363.273438 C 4.628906 364.054688 3.21875 364.765625 1.726562 365.300781 C -0.300781 366.023438 -2.386719 366.457031 -4.550781 366.457031 C -5.09375 366.457031 -5.632812 366.457031 -6.175781 366.425781 Z M -6.175781 366.425781 " fill-opacity="1" fill-rule="nonzero"/></g></g></g><g clip-path="url(#e0983e1001)"><g clip-path="url(#c9404c92dd)"><g clip-path="url(#ac192bf51c)"><path fill="#b77cd7" d="M 605.101562 -33.550781 C 605.171875 -33.460938 605.242188 -33.367188 605.3125 -33.277344 C 605.617188 -32.886719 605.921875 -32.492188 606.226562 -32.101562 C 606.519531 -31.730469 606.71875 -31.308594 606.917969 -30.890625 C 607.40625 -29.871094 607.84375 -28.832031 608.199219 -27.753906 C 608.4375 -27.03125 608.636719 -26.300781 608.824219 -25.5625 C 609.25 -23.894531 609.574219 -22.203125 610.054688 -20.546875 C 610.359375 -19.488281 610.761719 -18.464844 611.308594 -17.5 C 611.570312 -17.035156 611.839844 -16.582031 612.140625 -16.140625 C 612.316406 -15.882812 612.476562 -15.609375 612.683594 -15.375 C 613.074219 -14.9375 613.464844 -14.496094 613.875 -14.078125 C 614.355469 -13.589844 614.851562 -13.125 615.355469 -12.664062 C 615.769531 -12.285156 616.207031 -11.933594 616.648438 -11.59375 C 617.460938 -10.964844 618.296875 -10.371094 619.164062 -9.820312 C 620.183594 -9.175781 621.171875 -8.484375 622.105469 -7.71875 C 622.605469 -7.308594 623.0625 -6.855469 623.503906 -6.382812 C 624.054688 -5.789062 624.539062 -5.140625 625.023438 -4.492188 C 625.664062 -3.628906 626.109375 -2.671875 626.355469 -1.621094 C 626.457031 -1.183594 626.53125 -0.746094 626.601562 -0.304688 C 626.667969 0.125 626.644531 0.550781 626.628906 0.976562 C 626.613281 1.394531 626.578125 1.8125 626.523438 2.230469 C 626.410156 3.132812 626.148438 3.996094 625.820312 4.835938 C 625.292969 6.171875 624.589844 7.410156 623.765625 8.582031 C 623.359375 9.15625 622.894531 9.679688 622.378906 10.164062 C 622.207031 10.324219 622.03125 10.488281 621.847656 10.636719 C 621.542969 10.835938 621.296875 11.097656 621.03125 11.339844 C 620.730469 11.617188 620.332031 11.757812 620.035156 12.042969 C 619.570312 12.371094 619.0625 12.636719 618.558594 12.894531 C 617.941406 13.210938 617.320312 13.519531 616.664062 13.757812 C 616.046875 13.984375 615.417969 14.171875 614.78125 14.328125 C 614.171875 14.480469 613.5625 14.628906 612.945312 14.746094 C 611.691406 14.984375 610.429688 15.183594 609.167969 15.351562 C 608.015625 15.503906 606.867188 15.691406 605.71875 15.84375 C 604.707031 15.980469 603.703125 16.152344 602.707031 16.375 C 601.433594 16.65625 600.179688 17.003906 598.988281 17.550781 C 598.375 17.835938 597.785156 18.152344 597.210938 18.507812 C 596.777344 18.777344 596.375 19.082031 595.996094 19.410156 C 595.589844 19.765625 595.179688 20.117188 594.804688 20.515625 C 594.429688 20.914062 594.015625 21.28125 593.625 21.667969 C 593.285156 22.011719 592.949219 22.359375 592.613281 22.707031 C 592.203125 23.128906 591.796875 23.554688 591.390625 23.980469 C 591.039062 24.339844 590.691406 24.703125 590.339844 25.0625 C 590.070312 25.332031 589.808594 25.605469 589.519531 25.851562 C 588.898438 26.386719 588.3125 26.960938 587.65625 27.445312 C 586.253906 28.480469 584.746094 29.308594 583.050781 29.765625 C 582.15625 30.007812 581.242188 30.152344 580.324219 30.246094 C 579.480469 30.332031 578.636719 30.34375 577.789062 30.261719 C 576.703125 30.15625 575.652344 29.917969 574.609375 29.617188 C 573.140625 29.191406 571.804688 28.492188 570.507812 27.703125 C 569.507812 27.097656 568.527344 26.457031 567.625 25.710938 C 567.191406 25.355469 566.777344 24.980469 566.390625 24.574219 C 565.914062 24.066406 565.460938 23.546875 565.035156 22.996094 C 564.6875 22.542969 564.382812 22.0625 564.070312 21.585938 C 563.796875 21.171875 563.558594 20.742188 563.316406 20.3125 C 563.03125 19.808594 562.816406 19.269531 562.628906 18.71875 C 562.367188 17.941406 562.1875 17.144531 562.050781 16.335938 C 561.929688 15.621094 561.835938 14.90625 561.71875 14.191406 C 561.605469 13.523438 561.449219 12.867188 561.308594 12.207031 C 561.078125 11.121094 560.710938 10.085938 560.3125 9.054688 C 560.003906 8.253906 559.597656 7.503906 559.210938 6.742188 C 559.035156 6.398438 558.84375 6.050781 558.527344 5.804688 C 558.46875 5.757812 558.425781 5.6875 558.378906 5.628906 C 558.074219 5.238281 557.773438 4.847656 557.464844 4.457031 C 557.054688 3.933594 556.695312 3.375 556.324219 2.820312 C 556.039062 2.394531 555.761719 1.964844 555.496094 1.527344 C 555.128906 0.917969 554.824219 0.273438 554.554688 -0.386719 C 554.21875 -1.207031 553.929688 -2.046875 553.753906 -2.914062 C 553.550781 -3.902344 553.390625 -4.898438 553.398438 -5.914062 C 553.40625 -7.101562 553.738281 -8.199219 554.316406 -9.234375 C 554.664062 -9.863281 555.0625 -10.453125 555.570312 -10.957031 C 556.046875 -11.4375 556.570312 -11.859375 557.144531 -12.226562 C 558.117188 -12.847656 559.199219 -13.199219 560.292969 -13.535156 C 561.496094 -13.902344 562.664062 -14.355469 563.785156 -14.921875 C 564.191406 -15.125 564.585938 -15.355469 564.945312 -15.644531 C 565.371094 -15.984375 565.8125 -16.300781 566.230469 -16.648438 C 566.585938 -16.945312 566.910156 -17.285156 567.238281 -17.613281 C 567.679688 -18.054688 568.101562 -18.519531 568.511719 -18.992188 C 569.042969 -19.601562 569.566406 -20.21875 569.996094 -20.90625 C 570.546875 -21.78125 571.074219 -22.675781 571.605469 -23.566406 C 571.820312 -23.925781 572.015625 -24.296875 572.207031 -24.667969 C 572.558594 -25.367188 572.898438 -26.070312 573.242188 -26.769531 C 573.636719 -27.585938 574.019531 -28.40625 574.425781 -29.214844 C 574.941406 -30.242188 575.449219 -31.277344 576.101562 -32.230469 C 576.660156 -33.046875 577.257812 -33.835938 577.949219 -34.542969 C 578.394531 -35 578.859375 -35.4375 579.371094 -35.816406 C 579.734375 -36.097656 580.097656 -36.378906 580.460938 -36.660156 C 581.863281 -37.707031 583.453125 -38.289062 585.175781 -38.539062 C 586.207031 -38.6875 587.238281 -38.667969 588.273438 -38.589844 C 589.234375 -38.515625 590.191406 -38.445312 591.140625 -38.292969 C 591.863281 -38.175781 592.589844 -38.070312 593.320312 -37.996094 C 594.265625 -37.90625 595.214844 -37.832031 596.15625 -37.710938 C 597.054688 -37.597656 597.9375 -37.414062 598.8125 -37.179688 C 599.695312 -36.945312 600.5625 -36.667969 601.394531 -36.28125 C 602.523438 -35.761719 603.554688 -35.097656 604.445312 -34.21875 C 604.671875 -34 604.894531 -33.78125 605.101562 -33.550781 Z M 605.101562 -33.550781 " fill-opacity="1" fill-rule="nonzero"/></g></g></g><g clip-path="url(#e666950387)"><g clip-path="url(#5dd3d6ef6d)"><g clip-path="url(#c22c666f09)"><path fill="#b77cd7" d="M 288.316406 555.207031 C 288.359375 555.398438 288.402344 555.59375 288.445312 555.789062 C 288.628906 556.636719 288.816406 557.480469 289 558.328125 C 289.183594 559.125 289.179688 559.941406 289.183594 560.75 C 289.1875 562.71875 289.09375 564.6875 288.847656 566.644531 C 288.679688 567.957031 288.445312 569.261719 288.1875 570.5625 C 287.601562 573.503906 286.847656 576.410156 286.359375 579.375 C 286.046875 581.273438 285.914062 583.183594 286.050781 585.109375 C 286.113281 586.035156 286.199219 586.953125 286.339844 587.871094 C 286.421875 588.410156 286.472656 588.957031 286.621094 589.480469 C 286.902344 590.464844 287.1875 591.449219 287.523438 592.417969 C 287.910156 593.546875 288.34375 594.652344 288.792969 595.753906 C 289.160156 596.65625 289.582031 597.539062 290.019531 598.40625 C 290.824219 600.003906 291.699219 601.566406 292.652344 603.082031 C 293.773438 604.863281 294.808594 606.691406 295.707031 608.59375 C 296.183594 609.613281 296.5625 610.667969 296.898438 611.742188 C 297.324219 613.09375 297.597656 614.472656 297.871094 615.855469 C 298.234375 617.691406 298.21875 619.535156 297.816406 621.375 C 297.648438 622.136719 297.441406 622.882812 297.214844 623.628906 C 297 624.351562 296.644531 625.007812 296.300781 625.664062 C 295.960938 626.3125 295.59375 626.941406 295.195312 627.554688 C 294.339844 628.890625 293.28125 630.054688 292.132812 631.132812 C 290.304688 632.835938 288.269531 634.261719 286.09375 635.480469 C 285.027344 636.078125 283.898438 636.558594 282.726562 636.933594 C 282.332031 637.058594 281.9375 637.179688 281.539062 637.28125 C 280.910156 637.363281 280.324219 637.589844 279.726562 637.769531 C 279.042969 637.980469 278.3125 637.90625 277.632812 638.132812 C 276.652344 638.300781 275.660156 638.335938 274.667969 638.363281 C 273.457031 638.398438 272.25 638.414062 271.042969 638.300781 C 269.902344 638.195312 268.773438 638.019531 267.652344 637.789062 C 266.578125 637.570312 265.507812 637.34375 264.449219 637.066406 C 262.296875 636.503906 260.164062 635.875 258.050781 635.191406 C 256.125 634.566406 254.179688 634 252.253906 633.378906 C 250.5625 632.832031 248.851562 632.355469 247.121094 631.953125 C 244.90625 631.441406 242.671875 631.050781 240.386719 631.019531 C 239.210938 631.003906 238.042969 631.0625 236.871094 631.191406 C 235.988281 631.289062 235.128906 631.464844 234.285156 631.703125 C 233.378906 631.957031 232.46875 632.203125 231.585938 632.542969 C 230.691406 632.890625 229.769531 633.160156 228.863281 633.480469 C 228.070312 633.757812 227.28125 634.054688 226.492188 634.351562 C 225.53125 634.710938 224.574219 635.074219 223.613281 635.433594 C 222.792969 635.742188 221.972656 636.054688 221.148438 636.351562 C 220.527344 636.574219 219.90625 636.808594 219.269531 636.980469 C 217.894531 637.351562 216.539062 637.816406 215.140625 638.089844 C 212.15625 638.667969 209.164062 638.835938 206.15625 638.285156 C 204.566406 637.996094 203.023438 637.539062 201.503906 637 C 200.113281 636.503906 198.777344 635.882812 197.507812 635.121094 C 195.878906 634.144531 194.40625 632.980469 192.988281 631.722656 C 190.996094 629.957031 189.417969 627.847656 187.96875 625.640625 C 186.847656 623.9375 185.789062 622.191406 184.925781 620.34375 C 184.511719 619.460938 184.140625 618.558594 183.839844 617.628906 C 183.46875 616.476562 183.144531 615.3125 182.886719 614.128906 C 182.675781 613.15625 182.566406 612.171875 182.425781 611.1875 C 182.304688 610.335938 182.25 609.480469 182.191406 608.621094 C 182.125 607.609375 182.191406 606.601562 182.308594 605.597656 C 182.476562 604.179688 182.792969 602.789062 183.183594 601.414062 C 183.53125 600.203125 183.921875 599.003906 184.269531 597.792969 C 184.59375 596.660156 184.84375 595.507812 185.117188 594.359375 C 185.566406 592.480469 185.765625 590.574219 185.910156 588.65625 C 186.027344 587.164062 185.949219 585.679688 185.910156 584.191406 C 185.894531 583.523438 185.847656 582.832031 185.535156 582.203125 C 185.476562 582.085938 185.464844 581.945312 185.4375 581.816406 C 185.25 580.972656 185.066406 580.128906 184.875 579.289062 C 184.621094 578.15625 184.472656 577.007812 184.304688 575.859375 C 184.175781 574.972656 184.0625 574.085938 183.976562 573.199219 C 183.851562 571.964844 183.855469 570.722656 183.925781 569.484375 C 184.015625 567.941406 184.1875 566.40625 184.558594 564.910156 C 184.984375 563.203125 185.484375 561.511719 186.253906 559.921875 C 187.15625 558.0625 188.5 556.582031 190.1875 555.386719 C 191.207031 554.660156 192.273438 554.03125 193.449219 553.613281 C 194.558594 553.21875 195.699219 552.949219 196.875 552.800781 C 198.878906 552.546875 200.84375 552.808594 202.8125 553.101562 C 204.980469 553.425781 207.160156 553.585938 209.347656 553.539062 C 210.140625 553.523438 210.9375 553.453125 211.714844 553.273438 C 212.636719 553.054688 213.570312 552.882812 214.488281 552.652344 C 215.273438 552.449219 216.03125 552.164062 216.796875 551.890625 C 217.828125 551.527344 218.835938 551.113281 219.835938 550.679688 C 221.128906 550.121094 222.414062 549.535156 223.605469 548.78125 C 225.128906 547.8125 226.628906 546.804688 228.132812 545.800781 C 228.738281 545.394531 229.328125 544.960938 229.902344 544.515625 C 230.980469 543.683594 232.046875 542.832031 233.109375 541.984375 C 234.34375 541 235.558594 539.996094 236.800781 539.027344 C 238.382812 537.792969 239.960938 536.546875 241.703125 535.535156 C 243.195312 534.671875 244.722656 533.878906 246.34375 533.285156 C 247.382812 532.902344 248.441406 532.558594 249.535156 532.347656 C 250.316406 532.179688 251.097656 532.007812 251.882812 531.835938 C 254.875 531.246094 257.808594 531.519531 260.707031 532.414062 C 262.445312 532.953125 264.050781 533.757812 265.621094 534.660156 C 267.074219 535.492188 268.53125 536.324219 269.90625 537.277344 C 270.960938 538.003906 272.019531 538.714844 273.113281 539.371094 C 274.535156 540.230469 275.96875 541.054688 277.367188 541.953125 C 278.691406 542.804688 279.941406 543.757812 281.144531 544.777344 C 282.355469 545.808594 283.515625 546.898438 284.53125 548.125 C 285.917969 549.789062 287.042969 551.613281 287.789062 553.660156 C 287.976562 554.171875 288.164062 554.683594 288.316406 555.207031 Z M 288.316406 555.207031 " fill-opacity="1" fill-rule="nonzero"/></g></g></g><g mask="url(#f2e6331f61)"><g transform="matrix(1, 0, 0, 1, 896, 333)"><g clip-path="url(#99c2d684ad)"><g clip-path="url(#5c27f30849)"><g clip-path="url(#175ae27230)"><g clip-path="url(#8fc72f071e)"><g clip-path="url(#ccfb3fa8b4)"><path fill="#000000" d="M 20.726562 6.917969 C 20.664062 6.960938 20.601562 7.007812 20.542969 7.058594 C 18.335938 9.21875 18.777344 12.800781 20.183594 15.257812 C 21.347656 17.566406 24.152344 19.625 26.804688 18.488281 C 27.1875 18.316406 27.519531 18.046875 27.785156 17.730469 C 29.941406 14.859375 28.914062 10.695312 26.621094 8.246094 C 25.285156 6.5625 22.621094 5.570312 20.726562 6.917969 Z M 10.1875 14.375 C 8.65625 15.492188 8.527344 17.898438 9.300781 19.542969 C 10.800781 22.824219 14.652344 25.53125 18.355469 24.335938 C 18.683594 24.199219 18.984375 24 19.246094 23.753906 C 21.078125 21.976562 20.359375 19.066406 18.984375 17.261719 C 17.222656 14.851562 13.976562 12.898438 10.929688 13.984375 C 10.652344 14.085938 10.40625 14.214844 10.1875 14.375 Z M 33.328125 10.636719 C 30.746094 12.660156 30.746094 16.605469 32.207031 19.28125 C 33.09375 21.328125 35.722656 23.066406 37.886719 21.78125 C 40.742188 19.753906 40.589844 15.335938 38.855469 12.648438 C 37.832031 10.785156 35.339844 9.386719 33.328125 10.636719 Z M 10.160156 27.539062 C 9.007812 28.320312 8.351562 29.78125 8.777344 31.199219 C 9.921875 34.984375 14.640625 37.515625 18.390625 35.886719 C 19.929688 35.167969 20.414062 33.277344 19.878906 31.777344 C 18.734375 28.574219 15.074219 26.460938 11.710938 26.972656 C 11.140625 27.027344 10.613281 27.230469 10.160156 27.539062 Z M 26.078125 24.734375 C 23.832031 26.292969 22.335938 29.003906 22.046875 31.695312 C 21.835938 34.75 22.128906 37.925781 23.339844 40.753906 C 23.964844 42.960938 26.769531 44.058594 28.699219 42.742188 C 31.054688 41.207031 31.953125 38.257812 34.167969 36.550781 C 35.914062 34.90625 38.355469 34.707031 40.566406 34.152344 C 42.496094 33.753906 44.390625 32.085938 44.046875 29.960938 C 43.523438 27.921875 41.441406 26.796875 39.710938 25.859375 C 36.597656 24.546875 33.296875 23.1875 29.84375 23.414062 C 28.445312 23.488281 27.171875 23.972656 26.078125 24.734375 Z M 26.078125 24.734375 " fill-opacity="1" fill-rule="nonzero"/></g></g></g></g></g></g></g><g mask="url(#2aff36a517)"><g transform="matrix(1, 0, 0, 1, 773, 26)"><g clip-path="url(#56c51fdc56)"><g clip-path="url(#6594426dd6)"><g clip-path="url(#13d3d3b5b9)"><g clip-path="url(#48ac062bd3)"><g clip-path="url(#689ee8806c)"><path fill="#000000" d="M 24.59375 3.402344 C 24.523438 3.421875 24.449219 3.441406 24.375 3.46875 C 21.554688 4.726562 20.722656 8.238281 21.183594 11.03125 C 21.472656 13.597656 23.386719 16.507812 26.269531 16.363281 C 26.683594 16.335938 27.089844 16.195312 27.449219 15.992188 C 30.472656 14.050781 30.957031 9.792969 29.660156 6.699219 C 28.992188 4.65625 26.839844 2.796875 24.59375 3.402344 Z M 12.121094 6.722656 C 10.296875 7.234375 9.339844 9.445312 9.492188 11.257812 C 9.753906 14.855469 12.421875 18.734375 16.308594 18.902344 C 16.667969 18.886719 17.019531 18.808594 17.347656 18.667969 C 19.683594 17.640625 20.023438 14.660156 19.363281 12.492188 C 18.550781 9.617188 16.1875 6.65625 12.953125 6.613281 C 12.65625 6.609375 12.378906 6.648438 12.121094 6.722656 Z M 35.113281 11.273438 C 31.988281 12.269531 30.613281 15.972656 31.054688 18.988281 C 31.171875 21.214844 33.03125 23.757812 35.507812 23.304688 C 38.890625 22.398438 40.289062 18.207031 39.59375 15.085938 C 39.285156 12.980469 37.4375 10.800781 35.113281 11.273438 Z M 7.515625 19.050781 C 6.160156 19.382812 5.039062 20.527344 4.945312 22.003906 C 4.695312 25.949219 8.238281 29.964844 12.320312 29.742188 C 14.015625 29.605469 15.125 28.003906 15.148438 26.410156 C 15.1875 23.007812 12.496094 19.753906 9.160156 19.0625 C 8.609375 18.917969 8.042969 18.921875 7.515625 19.050781 Z M 23.410156 21.964844 C 20.761719 22.644531 18.414062 24.664062 17.207031 27.089844 C 15.945312 29.875 15.117188 32.957031 15.265625 36.03125 C 15.082031 38.316406 17.332031 40.320312 19.601562 39.757812 C 22.34375 39.140625 24.207031 36.6875 26.882812 35.859375 C 29.089844 34.925781 31.449219 35.585938 33.710938 35.839844 C 35.660156 36.136719 38.015625 35.230469 38.4375 33.121094 C 38.652344 31.027344 37.09375 29.25 35.800781 27.765625 C 33.339844 25.453125 30.71875 23.027344 27.398438 22.039062 C 26.0625 21.621094 24.699219 21.632812 23.410156 21.964844 Z M 23.410156 21.964844 " fill-opacity="1" fill-rule="nonzero"/></g></g></g></g></g></g></g><g mask="url(#cd4dfbf75a)"><g transform="matrix(1, 0, 0, 1, 288, 397)"><g clip-path="url(#572868dc1e)"><g clip-path="url(#cca2805d43)"><g clip-path="url(#cdde749f09)"><g clip-path="url(#c0ca410a6e)"><g clip-path="url(#701b415cd9)"><path fill="#000000" d="M 35.296875 8.539062 C 35.226562 8.515625 35.152344 8.496094 35.078125 8.476562 C 32.027344 7.988281 29.414062 10.480469 28.273438 13.070312 C 27.113281 15.378906 27.128906 18.859375 29.621094 20.3125 C 29.984375 20.519531 30.402344 20.621094 30.816406 20.648438 C 34.40625 20.671875 37.140625 17.371094 37.742188 14.070312 C 38.300781 11.992188 37.511719 9.261719 35.296875 8.539062 Z M 23.035156 4.511719 C 21.226562 3.945312 19.214844 5.277344 18.355469 6.875 C 16.609375 10.035156 16.730469 14.738281 19.894531 17.003906 C 20.199219 17.1875 20.539062 17.308594 20.890625 17.371094 C 23.410156 17.789062 25.320312 15.476562 25.953125 13.300781 C 26.84375 10.449219 26.476562 6.675781 23.792969 4.875 C 23.546875 4.710938 23.292969 4.59375 23.035156 4.511719 Z M 39.8125 20.878906 C 36.648438 20.007812 33.480469 22.359375 32.199219 25.125 C 31.085938 27.054688 31.253906 30.203125 33.574219 31.175781 C 36.902344 32.265625 40.359375 29.515625 41.484375 26.519531 C 42.375 24.589844 42.015625 21.753906 39.8125 20.878906 Z M 12.441406 12.328125 C 11.128906 11.867188 9.5625 12.210938 8.679688 13.394531 C 6.316406 16.566406 7.089844 21.867188 10.632812 23.90625 C 12.128906 24.71875 13.933594 23.980469 14.820312 22.660156 C 16.714844 19.832031 16.234375 15.632812 13.816406 13.234375 C 13.433594 12.8125 12.957031 12.507812 12.441406 12.328125 Z M 24.167969 23.445312 C 21.582031 22.570312 18.511719 22.980469 16.175781 24.351562 C 13.597656 26 11.21875 28.125 9.667969 30.785156 C 8.265625 32.597656 9.054688 35.507812 11.261719 36.273438 C 13.898438 37.253906 16.800781 36.214844 19.492188 36.980469 C 21.851562 37.40625 23.464844 39.25 25.226562 40.695312 C 26.695312 42.007812 29.164062 42.535156 30.667969 41 C 31.992188 39.359375 31.65625 37.019531 31.382812 35.070312 C 30.585938 31.789062 29.710938 28.328125 27.472656 25.683594 C 26.582031 24.609375 25.433594 23.875 24.167969 23.445312 Z M 24.167969 23.445312 " fill-opacity="1" fill-rule="nonzero"/></g></g></g></g></g></g></g><g mask="url(#75cd9beb62)"><g transform="matrix(1, 0, 0, 1, 259, 13)"><g clip-path="url(#63a5f67261)"><g clip-path="url(#097db0aaf3)"><g clip-path="url(#78de1225de)"><g clip-path="url(#8f5ad4b59b)"><g clip-path="url(#57ebb25a42)"><path fill="#000000" d="M 34.996094 8.179688 C 34.925781 8.15625 34.851562 8.132812 34.777344 8.117188 C 31.726562 7.628906 29.113281 10.117188 27.972656 12.710938 C 26.8125 15.019531 26.828125 18.496094 29.320312 19.953125 C 29.683594 20.15625 30.101562 20.261719 30.515625 20.289062 C 34.105469 20.3125 36.839844 17.007812 37.441406 13.707031 C 37.996094 11.632812 37.207031 8.902344 34.996094 8.179688 Z M 22.730469 4.148438 C 20.925781 3.582031 18.914062 4.914062 18.054688 6.515625 C 16.308594 9.675781 16.425781 14.378906 19.59375 16.640625 C 19.898438 16.824219 20.238281 16.949219 20.589844 17.011719 C 23.105469 17.429688 25.019531 15.117188 25.648438 12.9375 C 26.539062 10.085938 26.175781 6.316406 23.488281 4.515625 C 23.242188 4.351562 22.992188 4.230469 22.730469 4.152344 Z M 39.511719 20.519531 C 36.347656 19.648438 33.175781 21.996094 31.898438 24.765625 C 30.78125 26.695312 30.953125 29.839844 33.273438 30.816406 C 36.601562 31.902344 40.058594 29.152344 41.183594 26.15625 C 42.074219 24.226562 41.714844 21.390625 39.511719 20.519531 Z M 12.140625 11.964844 C 10.828125 11.503906 9.261719 11.847656 8.378906 13.035156 C 6.015625 16.207031 6.789062 21.503906 10.332031 23.546875 C 11.828125 24.355469 13.632812 23.621094 14.519531 22.296875 C 16.410156 19.46875 15.929688 15.273438 13.515625 12.875 C 13.132812 12.449219 12.65625 12.144531 12.140625 11.964844 Z M 23.867188 23.085938 C 21.277344 22.210938 18.207031 22.621094 15.875 23.992188 C 13.296875 25.636719 10.917969 27.765625 9.367188 30.421875 C 7.964844 32.238281 8.753906 35.144531 10.960938 35.914062 C 13.597656 36.890625 16.5 35.855469 19.191406 36.621094 C 21.550781 37.042969 23.164062 38.886719 24.925781 40.332031 C 26.394531 41.648438 28.863281 42.175781 30.363281 40.636719 C 31.691406 39 31.355469 36.660156 31.078125 34.710938 C 30.28125 31.425781 29.410156 27.964844 27.171875 25.324219 C 26.277344 24.246094 25.128906 23.511719 23.867188 23.085938 Z M 23.867188 23.085938 " fill-opacity="1" fill-rule="nonzero"/></g></g></g></g></g></g></g><g clip-path="url(#4148fa24ac)"><path fill="#b77cd7" d="M 785.476562 -78.542969 C 786.082031 -78.957031 786.617188 -78.882812 787.136719 -78.882812 C 876.152344 -78.886719 965.167969 -78.886719 1054.183594 -78.882812 C 1056.613281 -78.882812 1056.613281 -78.875 1056.613281 -76.453125 C 1056.613281 -0.53125 1056.613281 75.382812 1056.605469 151.300781 C 1056.605469 151.808594 1056.863281 152.542969 1056.433594 152.769531 C 1055.945312 153.03125 1055.40625 152.476562 1054.964844 152.15625 C 1052.242188 150.203125 1049.273438 148.648438 1046.460938 146.839844 C 1043.726562 145.082031 1040.902344 143.429688 1038.253906 141.546875 C 1036.402344 140.230469 1034.539062 138.914062 1032.839844 137.355469 C 1030.683594 135.378906 1028.25 133.710938 1025.957031 131.886719 C 1022.863281 129.421875 1020.265625 126.457031 1017.6875 123.488281 C 1016.316406 121.914062 1014.898438 120.355469 1013.757812 118.617188 C 1012.046875 116.003906 1010.289062 113.414062 1008.714844 110.710938 C 1006.847656 107.507812 1005.1875 104.195312 1003.742188 100.8125 C 1002.308594 97.460938 1000.863281 94.109375 999.59375 90.679688 C 997.804688 85.851562 995.519531 81.214844 993.671875 76.410156 C 992.589844 73.597656 991.421875 70.808594 990.492188 67.945312 C 989.511719 64.945312 988 62.175781 987.023438 59.199219 C 986.089844 56.355469 984.621094 53.746094 983.625 50.953125 C 982.246094 47.082031 980.496094 43.371094 978.871094 39.617188 C 977.25 35.863281 975.476562 32.15625 973.566406 28.519531 C 972.273438 26.054688 970.828125 23.691406 969.40625 21.324219 C 967.839844 18.714844 966.0625 16.230469 964.15625 13.835938 C 961.273438 10.214844 958.238281 6.734375 954.972656 3.46875 C 952.546875 1.042969 949.964844 -1.222656 947.335938 -3.429688 C 943.789062 -6.40625 939.910156 -8.921875 935.917969 -11.207031 C 931.96875 -13.472656 927.8125 -15.371094 923.492188 -16.886719 C 919.359375 -18.339844 915.179688 -19.675781 911.015625 -21.023438 C 908.480469 -21.839844 905.867188 -22.550781 903.253906 -23.160156 C 902.242188 -23.398438 901.273438 -23.828125 900.261719 -24.074219 C 895.476562 -25.238281 890.605469 -26.03125 885.859375 -27.371094 C 884.285156 -27.816406 882.625 -27.960938 881.039062 -28.371094 C 878.554688 -29.015625 876.0625 -29.664062 873.644531 -30.503906 C 870.828125 -31.480469 867.894531 -32.003906 865.09375 -33.015625 C 860.1875 -34.785156 855.125 -36.078125 850.214844 -37.875 C 847.167969 -38.992188 844.207031 -40.34375 841.125 -41.335938 C 837.273438 -42.570312 833.667969 -44.363281 830.015625 -46.015625 C 826.542969 -47.589844 823.125 -49.308594 819.765625 -51.140625 C 815.011719 -53.734375 810.667969 -56.910156 806.324219 -60.097656 C 804.292969 -61.59375 802.421875 -63.304688 800.386719 -64.792969 C 794.917969 -68.789062 790.3125 -73.699219 785.476562 -78.542969 Z M 785.476562 -78.542969 " fill-opacity="1" fill-rule="nonzero"/></g><g clip-path="url(#309f5312e2)"><g clip-path="url(#52b893b913)"><g clip-path="url(#33d2cfe437)"><path fill="#ffb246" d="M 302.425781 -65.820312 C 286.851562 -42.492188 260.84375 -27.664062 233.742188 -20.433594 C 222.941406 -17.550781 211.882812 -15.75 201.070312 -12.90625 C 190.261719 -10.066406 179.558594 -6.097656 170.617188 0.601562 C 161.53125 7.410156 154.664062 16.722656 148.457031 26.230469 C 142.253906 35.734375 136.535156 45.625 129.136719 54.238281 C 120.421875 64.382812 109.324219 72.65625 96.683594 77.035156 C 84.046875 81.414062 69.847656 81.722656 57.394531 76.84375 C 45.660156 72.25 35.898438 63.359375 23.929688 59.414062 C 10.84375 55.097656 -3.441406 57.132812 -17.066406 55.082031 C -23.878906 54.054688 -30.671875 51.925781 -36.183594 47.792969 C -38.9375 45.722656 -41.34375 43.164062 -43.101562 40.203125 C -44.859375 37.238281 -45.953125 33.863281 -46.117188 30.421875 C -46.292969 26.660156 -45.351562 22.890625 -43.710938 19.496094 C -42.074219 16.101562 -39.761719 13.066406 -37.152344 10.34375 C -31.9375 4.90625 -25.578125 0.710938 -19.917969 -4.261719 C -3.632812 -18.5625 6.226562 -38.566406 18.171875 -56.648438 C 32.640625 -78.546875 51.460938 -98.703125 75.808594 -108.5 C 84.546875 -112.015625 93.777344 -114.109375 102.832031 -116.710938 C 111.886719 -119.308594 120.921875 -122.492188 128.644531 -127.886719 C 141.316406 -136.742188 149.3125 -150.691406 156.738281 -164.253906 C 160.828125 -171.726562 164.882812 -179.246094 169.828125 -186.183594 C 174.773438 -193.121094 180.660156 -199.5 187.824219 -204.109375 C 194.988281 -208.71875 203.519531 -211.472656 212.015625 -210.875 C 216.265625 -210.574219 220.464844 -209.441406 224.226562 -207.4375 C 227.984375 -205.4375 231.292969 -202.5625 233.6875 -199.039062 C 236.046875 -195.570312 237.488281 -191.550781 238.425781 -187.464844 C 239.367188 -183.375 239.828125 -179.199219 240.378906 -175.039062 C 240.929688 -170.882812 241.574219 -166.714844 242.867188 -162.726562 C 244.160156 -158.738281 246.132812 -154.90625 249.054688 -151.898438 C 251.71875 -149.160156 255.097656 -147.183594 258.664062 -145.808594 C 262.230469 -144.4375 265.992188 -143.640625 269.765625 -143.03125 C 277.3125 -141.816406 285.109375 -141.289062 292.105469 -138.210938 C 298.472656 -135.414062 303.863281 -130.5625 307.605469 -124.703125 C 311.347656 -118.84375 313.46875 -112.007812 314.035156 -105.074219 C 315.171875 -91.214844 310.148438 -77.382812 302.425781 -65.820312 Z M 302.425781 -65.820312 " fill-opacity="1" fill-rule="nonzero"/></g></g></g><g clip-path="url(#9ed4aaf8db)"><path fill="#b77cd7" d="M -68.289062 245.917969 C -68.703125 245.308594 -68.628906 244.773438 -68.628906 244.257812 C -68.632812 155.242188 -68.632812 66.226562 -68.628906 -22.789062 C -68.628906 -25.222656 -68.625 -25.222656 -66.199219 -25.222656 C 9.71875 -25.222656 85.632812 -25.222656 161.554688 -25.210938 C 162.058594 -25.210938 162.792969 -25.472656 163.023438 -25.042969 C 163.285156 -24.554688 162.726562 -24.011719 162.410156 -23.570312 C 160.457031 -20.847656 158.898438 -17.878906 157.089844 -15.066406 C 155.332031 -12.332031 153.679688 -9.507812 151.796875 -6.859375 C 150.480469 -5.007812 149.164062 -3.144531 147.605469 -1.445312 C 145.628906 0.710938 143.964844 3.144531 142.136719 5.4375 C 139.671875 8.53125 136.707031 11.125 133.738281 13.707031 C 132.164062 15.078125 130.605469 16.496094 128.871094 17.632812 C 126.257812 19.347656 123.667969 21.101562 120.960938 22.679688 C 117.761719 24.542969 114.445312 26.207031 111.0625 27.652344 C 107.710938 29.082031 104.359375 30.53125 100.929688 31.800781 C 96.101562 33.585938 91.464844 35.871094 86.660156 37.722656 C 83.851562 38.804688 81.058594 39.972656 78.199219 40.902344 C 75.195312 41.882812 72.425781 43.390625 69.453125 44.367188 C 66.605469 45.300781 63.996094 46.773438 61.203125 47.769531 C 57.332031 49.148438 53.621094 50.898438 49.867188 52.523438 C 46.113281 54.144531 42.40625 55.917969 38.769531 57.828125 C 36.304688 59.121094 33.941406 60.5625 31.574219 61.984375 C 28.96875 63.554688 26.480469 65.332031 24.085938 67.238281 C 20.464844 70.121094 16.984375 73.15625 13.71875 76.421875 C 11.296875 78.84375 9.027344 81.429688 6.820312 84.058594 C 3.84375 87.605469 1.332031 91.484375 -0.957031 95.476562 C -3.21875 99.425781 -5.117188 103.578125 -6.636719 107.902344 C -8.085938 112.035156 -9.425781 116.210938 -10.769531 120.378906 C -11.585938 122.914062 -12.296875 125.523438 -12.910156 128.140625 C -13.144531 129.152344 -13.574219 130.121094 -13.824219 131.128906 C -14.988281 135.917969 -15.78125 140.785156 -17.121094 145.535156 C -17.566406 147.109375 -17.707031 148.769531 -18.121094 150.355469 C -18.761719 152.839844 -19.414062 155.328125 -20.253906 157.75 C -21.230469 160.5625 -21.753906 163.5 -22.765625 166.300781 C -24.535156 171.207031 -25.828125 176.265625 -27.625 181.175781 C -28.738281 184.226562 -30.089844 187.1875 -31.082031 190.269531 C -32.320312 194.121094 -34.109375 197.722656 -35.765625 201.378906 C -37.339844 204.851562 -39.058594 208.265625 -40.890625 211.628906 C -43.484375 216.382812 -46.660156 220.726562 -49.847656 225.066406 C -51.339844 227.097656 -53.054688 228.96875 -54.542969 231.007812 C -58.539062 236.476562 -63.449219 241.082031 -68.289062 245.917969 Z M -68.289062 245.917969 " fill-opacity="1" fill-rule="nonzero"/></g></svg>