<svg xmlns="http://www.w3.org/2000/svg" xmlns:xlink="http://www.w3.org/1999/xlink" width="281" zoomAndPan="magnify" viewBox="0 0 210.75 375.749989" height="501" preserveAspectRatio="xMidYMid meet" version="1.0"><defs><clipPath id="3b9ec9a6df"><path d="M 0 0.0976562 L 210.5 0.0976562 L 210.5 375.402344 L 0 375.402344 Z M 0 0.0976562 " clip-rule="nonzero"/></clipPath><clipPath id="3bc6e95c68"><path d="M 87 311 L 210.5 311 L 210.5 375.402344 L 87 375.402344 Z M 87 311 " clip-rule="nonzero"/></clipPath><clipPath id="3a53998ecc"><path d="M 233.832031 361.089844 L 113.957031 444.566406 L 72.863281 385.550781 L 192.738281 302.074219 Z M 233.832031 361.089844 " clip-rule="nonzero"/></clipPath><clipPath id="a9927b58a5"><path d="M 233.832031 361.089844 L 113.957031 444.566406 L 72.863281 385.550781 L 192.738281 302.074219 Z M 233.832031 361.089844 " clip-rule="nonzero"/></clipPath><clipPath id="876759ff37"><path d="M 125.402344 273.484375 L 210.5 273.484375 L 210.5 375.402344 L 125.402344 375.402344 Z M 125.402344 273.484375 " clip-rule="nonzero"/></clipPath><clipPath id="9a2724345b"><path d="M 0 351.015625 L 11.65625 351.015625 L 11.65625 375.402344 L 0 375.402344 Z M 0 351.015625 " clip-rule="nonzero"/></clipPath><clipPath id="5d72b16a2a"><path d="M -7.109375 351.015625 C -17.476562 351.015625 -25.875 359.417969 -25.875 369.785156 C -25.875 380.148438 -17.476562 388.550781 -7.109375 388.550781 C 3.253906 388.550781 11.65625 380.148438 11.65625 369.785156 C 11.65625 359.417969 3.253906 351.015625 -7.109375 351.015625 Z M -7.109375 351.015625 " clip-rule="nonzero"/></clipPath><clipPath id="8539b105fd"><path d="M 140.980469 24.828125 L 166.074219 24.828125 L 166.074219 49.921875 L 140.980469 49.921875 Z M 140.980469 24.828125 " clip-rule="nonzero"/></clipPath><clipPath id="3674a38b86"><path d="M 153.527344 24.828125 C 146.597656 24.828125 140.980469 30.445312 140.980469 37.375 C 140.980469 44.304688 146.597656 49.921875 153.527344 49.921875 C 160.457031 49.921875 166.074219 44.304688 166.074219 37.375 C 166.074219 30.445312 160.457031 24.828125 153.527344 24.828125 Z M 153.527344 24.828125 " clip-rule="nonzero"/></clipPath><clipPath id="07a730691f"><path d="M 0 98.410156 L 10.164062 98.410156 L 10.164062 139.523438 L 0 139.523438 Z M 0 98.410156 " clip-rule="nonzero"/></clipPath><clipPath id="d2f3c0fb32"><path d="M -10.394531 98.410156 C -21.746094 98.410156 -30.949219 107.617188 -30.949219 118.96875 C -30.949219 130.320312 -21.746094 139.523438 -10.394531 139.523438 C 0.960938 139.523438 10.164062 130.320312 10.164062 118.96875 C 10.164062 107.617188 0.960938 98.410156 -10.394531 98.410156 Z M -10.394531 98.410156 " clip-rule="nonzero"/></clipPath><clipPath id="bd429605c0"><path d="M 0 223 L 10 223 L 10 284 L 0 284 Z M 0 223 " clip-rule="nonzero"/></clipPath><clipPath id="67053d31f3"><path d="M -39.828125 220.402344 L 15.105469 227.839844 L 7.265625 285.742188 L -47.667969 278.304688 Z M -39.828125 220.402344 " clip-rule="nonzero"/></clipPath><clipPath id="89ab58b2ef"><path d="M -39.828125 220.402344 L 15.105469 227.839844 L 7.265625 285.742188 L -47.667969 278.304688 Z M -39.828125 220.402344 " clip-rule="nonzero"/></clipPath><clipPath id="81ee71f8f8"><path d="M 196 133 L 210.5 133 L 210.5 177 L 196 177 Z M 196 133 " clip-rule="nonzero"/></clipPath><clipPath id="f0dedd4947"><path d="M 213.53125 184.027344 L 189.660156 153.246094 L 222.214844 127.996094 L 246.089844 158.777344 Z M 213.53125 184.027344 " clip-rule="nonzero"/></clipPath><clipPath id="d7ff27ba83"><path d="M 213.53125 184.027344 L 189.660156 153.246094 L 222.214844 127.996094 L 246.089844 158.777344 Z M 213.53125 184.027344 " clip-rule="nonzero"/></clipPath><clipPath id="6ac1cc3a2e"><path d="M 37 356 L 78 356 L 78 375.402344 L 37 375.402344 Z M 37 356 " clip-rule="nonzero"/></clipPath><clipPath id="11cf0fa5f1"><path d="M 40.738281 399.785156 L 32.585938 362.457031 L 71.375 353.988281 L 79.527344 391.316406 Z M 40.738281 399.785156 " clip-rule="nonzero"/></clipPath><clipPath id="f00c8c5dfd"><path d="M 40.738281 399.785156 L 32.585938 362.457031 L 71.375 353.988281 L 79.527344 391.316406 Z M 40.738281 399.785156 " clip-rule="nonzero"/></clipPath><clipPath id="fca5eb62d0"><path d="M 133 0.0976562 L 210.5 0.0976562 L 210.5 81 L 133 81 Z M 133 0.0976562 " clip-rule="nonzero"/></clipPath><clipPath id="5c982f75d4"><path d="M 125.261719 70.546875 L 133.605469 -9.925781 L 228.234375 -0.113281 L 219.890625 80.359375 Z M 125.261719 70.546875 " clip-rule="nonzero"/></clipPath><clipPath id="1213a063ed"><path d="M 228.121094 -0.371094 L 219.777344 80.101562 L 125.148438 70.289062 L 133.492188 -10.183594 Z M 228.121094 -0.371094 " clip-rule="nonzero"/></clipPath><clipPath id="21ffbc34d5"><path d="M 0 0.0976562 L 91 0.0976562 L 91 26 L 0 26 Z M 0 0.0976562 " clip-rule="nonzero"/></clipPath><clipPath id="3208dfbaab"><path d="M 97.3125 -15.429688 L 16.78125 40.652344 L -11.042969 0.691406 L 69.488281 -55.386719 Z M 97.3125 -15.429688 " clip-rule="nonzero"/></clipPath><clipPath id="8019df0389"><path d="M 97.3125 -15.429688 L 16.78125 40.652344 L -11.042969 0.691406 L 69.488281 -55.386719 Z M 97.3125 -15.429688 " clip-rule="nonzero"/></clipPath><clipPath id="f1dfbf1ea5"><path d="M 0 0.0976562 L 27.304688 0.0976562 L 27.304688 38.839844 L 0 38.839844 Z M 0 0.0976562 " clip-rule="nonzero"/></clipPath></defs><g clip-path="url(#3b9ec9a6df)"><path fill="#ffffff" d="M 0 0.0976562 L 210.5 0.0976562 L 210.5 375.402344 L 0 375.402344 Z M 0 0.0976562 " fill-opacity="1" fill-rule="nonzero"/><path fill="#ffffff" d="M 0 0.0976562 L 210.5 0.0976562 L 210.5 375.402344 L 0 375.402344 Z M 0 0.0976562 " fill-opacity="1" fill-rule="nonzero"/></g><g clip-path="url(#3bc6e95c68)"><g clip-path="url(#3a53998ecc)"><g clip-path="url(#a9927b58a5)"><path fill="#ffb246" d="M 219.421875 366.324219 C 213.527344 375.152344 203.683594 380.761719 193.429688 383.5 C 189.34375 384.589844 185.15625 385.273438 181.066406 386.347656 C 176.972656 387.421875 172.925781 388.925781 169.539062 391.460938 C 166.101562 394.035156 163.503906 397.5625 161.152344 401.160156 C 158.804688 404.757812 156.640625 408.5 153.84375 411.757812 C 150.542969 415.597656 146.34375 418.726562 141.5625 420.386719 C 136.777344 422.042969 131.402344 422.160156 126.691406 420.3125 C 122.25 418.574219 118.554688 415.210938 114.027344 413.71875 C 109.074219 412.085938 103.667969 412.855469 98.511719 412.078125 C 95.933594 411.691406 93.363281 410.882812 91.277344 409.320312 C 90.234375 408.535156 89.324219 407.566406 88.660156 406.445312 C 87.996094 405.324219 87.578125 404.046875 87.519531 402.746094 C 87.453125 401.320312 87.808594 399.894531 88.429688 398.609375 C 89.046875 397.324219 89.925781 396.175781 90.910156 395.148438 C 92.882812 393.089844 95.289062 391.5 97.433594 389.621094 C 103.597656 384.207031 107.328125 376.636719 111.847656 369.792969 C 117.324219 361.507812 124.445312 353.878906 133.660156 350.171875 C 136.96875 348.839844 140.460938 348.046875 143.886719 347.066406 C 147.3125 346.082031 150.734375 344.878906 153.65625 342.835938 C 158.453125 339.484375 161.476562 334.207031 164.285156 329.070312 C 165.835938 326.246094 167.371094 323.398438 169.242188 320.773438 C 171.113281 318.148438 173.339844 315.734375 176.050781 313.988281 C 178.761719 312.246094 181.992188 311.203125 185.207031 311.429688 C 186.8125 311.542969 188.40625 311.972656 189.828125 312.730469 C 191.25 313.488281 192.503906 314.574219 193.410156 315.910156 C 194.300781 317.222656 194.847656 318.742188 195.203125 320.289062 C 195.558594 321.835938 195.730469 323.417969 195.941406 324.992188 C 196.148438 326.5625 196.394531 328.140625 196.882812 329.648438 C 197.371094 331.160156 198.117188 332.609375 199.222656 333.746094 C 200.230469 334.785156 201.511719 335.53125 202.859375 336.050781 C 204.210938 336.574219 205.632812 336.875 207.0625 337.101562 C 209.917969 337.5625 212.867188 337.761719 215.515625 338.925781 C 217.925781 339.988281 219.964844 341.820312 221.382812 344.039062 C 222.796875 346.257812 223.601562 348.84375 223.816406 351.46875 C 224.246094 356.710938 222.34375 361.949219 219.421875 366.324219 Z M 219.421875 366.324219 " fill-opacity="1" fill-rule="nonzero"/></g></g></g><g clip-path="url(#876759ff37)"><path fill="#b77cd7" d="M 212.886719 273.378906 C 213.042969 273.605469 213.015625 273.808594 213.015625 274.007812 C 213.015625 307.691406 213.015625 341.378906 213.015625 375.0625 C 213.015625 375.984375 213.011719 375.984375 212.09375 375.984375 C 183.367188 375.984375 154.636719 375.984375 125.90625 375.980469 C 125.714844 375.980469 125.4375 376.078125 125.351562 375.917969 C 125.253906 375.730469 125.460938 375.527344 125.582031 375.359375 C 126.324219 374.328125 126.910156 373.207031 127.59375 372.140625 C 128.261719 371.105469 128.886719 370.039062 129.597656 369.035156 C 130.097656 368.335938 130.59375 367.628906 131.183594 366.988281 C 131.933594 366.171875 132.5625 365.25 133.253906 364.382812 C 134.1875 363.210938 135.308594 362.230469 136.433594 361.253906 C 137.027344 360.734375 137.617188 360.195312 138.277344 359.765625 C 139.265625 359.117188 140.246094 358.453125 141.269531 357.855469 C 142.480469 357.152344 143.734375 356.523438 145.011719 355.976562 C 146.28125 355.433594 147.550781 354.886719 148.847656 354.40625 C 150.675781 353.730469 152.429688 352.863281 154.25 352.164062 C 155.3125 351.753906 156.367188 351.3125 157.449219 350.960938 C 158.585938 350.589844 159.636719 350.019531 160.761719 349.648438 C 161.835938 349.296875 162.824219 348.738281 163.882812 348.363281 C 165.347656 347.839844 166.75 347.179688 168.171875 346.5625 C 169.59375 345.949219 170.996094 345.277344 172.371094 344.554688 C 173.304688 344.066406 174.199219 343.519531 175.09375 342.984375 C 176.082031 342.390625 177.023438 341.714844 177.929688 340.996094 C 179.296875 339.902344 180.617188 338.753906 181.851562 337.519531 C 182.769531 336.601562 183.625 335.625 184.460938 334.628906 C 185.589844 333.289062 186.539062 331.820312 187.40625 330.308594 C 188.261719 328.816406 188.980469 327.242188 189.554688 325.605469 C 190.105469 324.042969 190.609375 322.460938 191.121094 320.886719 C 191.429688 319.925781 191.699219 318.9375 191.929688 317.949219 C 192.019531 317.566406 192.179688 317.199219 192.273438 316.816406 C 192.714844 315.003906 193.015625 313.164062 193.523438 311.363281 C 193.691406 310.769531 193.746094 310.140625 193.902344 309.542969 C 194.144531 308.601562 194.390625 307.660156 194.707031 306.742188 C 195.078125 305.675781 195.273438 304.566406 195.65625 303.507812 C 196.328125 301.652344 196.816406 299.734375 197.496094 297.878906 C 197.917969 296.722656 198.429688 295.601562 198.804688 294.4375 C 199.273438 292.980469 199.953125 291.613281 200.578125 290.230469 C 201.171875 288.917969 201.824219 287.625 202.519531 286.355469 C 203.5 284.554688 204.699219 282.910156 205.90625 281.265625 C 206.472656 280.5 207.121094 279.789062 207.683594 279.019531 C 209.195312 276.949219 211.054688 275.207031 212.886719 273.378906 Z M 212.886719 273.378906 " fill-opacity="1" fill-rule="nonzero"/></g><g clip-path="url(#9a2724345b)"><g clip-path="url(#5d72b16a2a)"><path fill="#ffb246" d="M -25.875 351.015625 L 11.65625 351.015625 L 11.65625 388.550781 L -25.875 388.550781 Z M -25.875 351.015625 " fill-opacity="1" fill-rule="nonzero"/></g></g><g clip-path="url(#8539b105fd)"><g clip-path="url(#3674a38b86)"><path fill="#ffb246" d="M 140.980469 24.828125 L 166.074219 24.828125 L 166.074219 49.921875 L 140.980469 49.921875 Z M 140.980469 24.828125 " fill-opacity="1" fill-rule="nonzero"/></g></g><g clip-path="url(#07a730691f)"><g clip-path="url(#d2f3c0fb32)"><path fill="#ffb246" d="M -30.949219 98.410156 L 10.164062 98.410156 L 10.164062 139.523438 L -30.949219 139.523438 Z M -30.949219 98.410156 " fill-opacity="1" fill-rule="nonzero"/></g></g><g clip-path="url(#bd429605c0)"><g clip-path="url(#67053d31f3)"><g clip-path="url(#89ab58b2ef)"><path fill="#b77cd7" d="M -8.035156 283.875 C -8.132812 283.863281 -8.234375 283.847656 -8.335938 283.835938 C -8.769531 283.777344 -9.207031 283.71875 -9.640625 283.660156 C -10.054688 283.609375 -10.441406 283.464844 -10.828125 283.324219 C -11.765625 282.988281 -12.6875 282.601562 -13.578125 282.140625 C -14.175781 281.832031 -14.757812 281.496094 -15.332031 281.144531 C -16.632812 280.355469 -17.886719 279.492188 -19.214844 278.742188 C -20.066406 278.265625 -20.953125 277.871094 -21.894531 277.601562 C -22.347656 277.46875 -22.800781 277.351562 -23.261719 277.257812 C -23.53125 277.203125 -23.800781 277.132812 -24.078125 277.113281 C -24.597656 277.074219 -25.113281 277.042969 -25.632812 277.03125 C -26.238281 277.019531 -26.839844 277.035156 -27.445312 277.058594 C -27.9375 277.078125 -28.433594 277.125 -28.921875 277.183594 C -29.824219 277.289062 -30.71875 277.433594 -31.609375 277.625 C -32.652344 277.847656 -33.703125 278.027344 -34.765625 278.121094 C -35.335938 278.171875 -35.902344 278.171875 -36.476562 278.144531 C -37.191406 278.109375 -37.898438 278.003906 -38.605469 277.894531 C -39.542969 277.746094 -40.417969 277.417969 -41.226562 276.90625 C -41.558594 276.695312 -41.878906 276.464844 -42.195312 276.230469 C -42.503906 276 -42.753906 275.71875 -43.007812 275.4375 C -43.257812 275.164062 -43.492188 274.878906 -43.714844 274.585938 C -44.203125 273.945312 -44.574219 273.238281 -44.886719 272.503906 C -45.382812 271.335938 -45.707031 270.117188 -45.914062 268.867188 C -46.011719 268.253906 -46.042969 267.636719 -46.019531 267.011719 C -46.011719 266.800781 -46 266.59375 -45.980469 266.382812 C -45.910156 266.070312 -45.914062 265.753906 -45.898438 265.433594 C -45.878906 265.074219 -45.714844 264.738281 -45.707031 264.375 C -45.617188 263.878906 -45.460938 263.398438 -45.300781 262.921875 C -45.105469 262.339844 -44.90625 261.761719 -44.640625 261.203125 C -44.394531 260.679688 -44.113281 260.171875 -43.808594 259.675781 C -43.519531 259.203125 -43.222656 258.730469 -42.90625 258.277344 C -42.265625 257.347656 -41.59375 256.441406 -40.902344 255.550781 C -40.269531 254.742188 -39.660156 253.914062 -39.03125 253.105469 C -38.476562 252.390625 -37.953125 251.660156 -37.460938 250.90625 C -36.832031 249.9375 -36.253906 248.941406 -35.84375 247.855469 C -35.632812 247.296875 -35.457031 246.730469 -35.316406 246.152344 C -35.207031 245.714844 -35.144531 245.273438 -35.109375 244.828125 C -35.074219 244.355469 -35.03125 243.878906 -35.042969 243.398438 C -35.050781 242.910156 -35.019531 242.425781 -35.015625 241.9375 C -35.011719 241.511719 -35.015625 241.082031 -35.019531 240.65625 C -35.023438 240.132812 -35.03125 239.613281 -35.035156 239.09375 C -35.039062 238.648438 -35.042969 238.207031 -35.042969 237.761719 C -35.042969 237.425781 -35.046875 237.089844 -35.015625 236.753906 C -34.953125 236.035156 -34.941406 235.308594 -34.828125 234.59375 C -34.585938 233.074219 -34.144531 231.617188 -33.359375 230.277344 C -32.945312 229.570312 -32.460938 228.914062 -31.9375 228.285156 C -31.460938 227.707031 -30.933594 227.179688 -30.347656 226.703125 C -29.601562 226.097656 -28.789062 225.597656 -27.945312 225.140625 C -26.753906 224.496094 -25.476562 224.113281 -24.171875 223.804688 C -23.167969 223.566406 -22.152344 223.367188 -21.117188 223.273438 C -20.625 223.230469 -20.132812 223.210938 -19.636719 223.230469 C -19.023438 223.253906 -18.410156 223.300781 -17.804688 223.382812 C -17.304688 223.453125 -16.8125 223.570312 -16.320312 223.675781 C -15.894531 223.765625 -15.476562 223.886719 -15.054688 224.007812 C -14.5625 224.152344 -14.09375 224.359375 -13.636719 224.589844 C -12.988281 224.917969 -12.378906 225.308594 -11.792969 225.734375 C -11.273438 226.109375 -10.773438 226.503906 -10.253906 226.878906 C -9.773438 227.234375 -9.265625 227.550781 -8.765625 227.882812 C -7.949219 228.421875 -7.074219 228.847656 -6.183594 229.25 C -5.496094 229.566406 -4.773438 229.785156 -4.058594 230.027344 C -3.734375 230.132812 -3.398438 230.234375 -3.042969 230.191406 C -2.980469 230.1875 -2.910156 230.203125 -2.84375 230.210938 C -2.410156 230.269531 -1.976562 230.328125 -1.539062 230.386719 C -0.957031 230.460938 -0.382812 230.589844 0.191406 230.710938 C 0.636719 230.800781 1.078125 230.902344 1.519531 231.015625 C 2.128906 231.167969 2.71875 231.386719 3.296875 231.636719 C 4.019531 231.945312 4.71875 232.296875 5.367188 232.734375 C 6.109375 233.230469 6.828125 233.761719 7.449219 234.40625 C 8.179688 235.160156 8.652344 236.058594 8.929688 237.070312 C 9.097656 237.679688 9.214844 238.300781 9.207031 238.933594 C 9.203125 239.53125 9.136719 240.121094 9 240.707031 C 8.773438 241.707031 8.308594 242.597656 7.824219 243.484375 C 7.292969 244.460938 6.839844 245.472656 6.480469 246.523438 C 6.351562 246.902344 6.246094 247.296875 6.195312 247.699219 C 6.140625 248.175781 6.058594 248.652344 6.011719 249.128906 C 5.96875 249.539062 5.976562 249.949219 5.972656 250.359375 C 5.96875 250.914062 5.988281 251.46875 6.023438 252.019531 C 6.0625 252.734375 6.121094 253.449219 6.273438 254.144531 C 6.46875 255.042969 6.6875 255.933594 6.90625 256.824219 C 6.996094 257.183594 7.097656 257.539062 7.210938 257.890625 C 7.421875 258.546875 7.640625 259.203125 7.859375 259.859375 C 8.113281 260.617188 8.382812 261.371094 8.628906 262.132812 C 8.941406 263.101562 9.261719 264.066406 9.441406 265.074219 C 9.59375 265.933594 9.707031 266.800781 9.707031 267.675781 C 9.710938 268.238281 9.6875 268.804688 9.597656 269.363281 C 9.542969 269.765625 9.492188 270.167969 9.433594 270.570312 C 9.199219 272.097656 8.558594 273.449219 7.625 274.675781 C 7.066406 275.410156 6.40625 276.035156 5.703125 276.628906 C 5.054688 277.175781 4.402344 277.726562 3.710938 278.214844 C 3.179688 278.589844 2.660156 278.972656 2.15625 279.378906 C 1.5 279.910156 0.855469 280.449219 0.1875 280.957031 C -0.453125 281.441406 -1.121094 281.875 -1.816406 282.269531 C -2.519531 282.667969 -3.242188 283.03125 -4 283.300781 C -5.035156 283.671875 -6.101562 283.894531 -7.207031 283.894531 C -7.480469 283.894531 -7.757812 283.894531 -8.035156 283.875 Z M -8.035156 283.875 " fill-opacity="1" fill-rule="nonzero"/></g></g></g><g clip-path="url(#81ee71f8f8)"><g clip-path="url(#f0dedd4947)"><g clip-path="url(#d7ff27ba83)"><path fill="#b77cd7" d="M 228.953125 136.25 C 228.996094 136.304688 229.039062 136.363281 229.082031 136.417969 C 229.273438 136.664062 229.464844 136.910156 229.65625 137.15625 C 229.835938 137.386719 229.960938 137.648438 230.089844 137.910156 C 230.394531 138.546875 230.667969 139.199219 230.890625 139.871094 C 231.039062 140.324219 231.164062 140.78125 231.28125 141.242188 C 231.546875 142.285156 231.75 143.34375 232.046875 144.378906 C 232.242188 145.042969 232.492188 145.679688 232.832031 146.285156 C 232.996094 146.574219 233.167969 146.859375 233.351562 147.132812 C 233.460938 147.296875 233.5625 147.464844 233.695312 147.613281 C 233.9375 147.886719 234.179688 148.164062 234.4375 148.425781 C 234.738281 148.730469 235.050781 149.019531 235.363281 149.308594 C 235.625 149.542969 235.894531 149.765625 236.171875 149.976562 C 236.679688 150.371094 237.203125 150.742188 237.746094 151.085938 C 238.382812 151.492188 239 151.921875 239.585938 152.402344 C 239.898438 152.65625 240.183594 152.941406 240.457031 153.234375 C 240.804688 153.609375 241.105469 154.011719 241.40625 154.417969 C 241.808594 154.957031 242.089844 155.558594 242.242188 156.214844 C 242.304688 156.488281 242.351562 156.761719 242.394531 157.039062 C 242.4375 157.304688 242.421875 157.570312 242.414062 157.839844 C 242.402344 158.101562 242.378906 158.359375 242.347656 158.621094 C 242.273438 159.183594 242.113281 159.726562 241.90625 160.253906 C 241.578125 161.085938 241.136719 161.863281 240.621094 162.59375 C 240.367188 162.953125 240.078125 163.28125 239.753906 163.582031 C 239.648438 163.683594 239.539062 163.785156 239.425781 163.878906 C 239.234375 164 239.078125 164.164062 238.914062 164.316406 C 238.722656 164.488281 238.476562 164.578125 238.289062 164.757812 C 238 164.964844 237.683594 165.128906 237.367188 165.289062 C 236.980469 165.488281 236.589844 165.679688 236.183594 165.828125 C 235.796875 165.972656 235.402344 166.089844 235.003906 166.1875 C 234.625 166.28125 234.242188 166.375 233.855469 166.449219 C 233.074219 166.597656 232.285156 166.722656 231.492188 166.828125 C 230.773438 166.921875 230.058594 167.039062 229.335938 167.132812 C 228.703125 167.21875 228.078125 167.328125 227.453125 167.464844 C 226.65625 167.640625 225.875 167.859375 225.128906 168.203125 C 224.746094 168.378906 224.375 168.578125 224.015625 168.800781 C 223.746094 168.96875 223.496094 169.15625 223.257812 169.363281 C 223.003906 169.585938 222.746094 169.808594 222.515625 170.054688 C 222.277344 170.304688 222.019531 170.535156 221.777344 170.777344 C 221.5625 170.992188 221.351562 171.207031 221.144531 171.425781 C 220.886719 171.691406 220.632812 171.957031 220.378906 172.222656 C 220.160156 172.449219 219.941406 172.675781 219.722656 172.898438 C 219.554688 173.066406 219.390625 173.238281 219.210938 173.394531 C 218.820312 173.726562 218.453125 174.085938 218.042969 174.386719 C 217.167969 175.035156 216.222656 175.554688 215.164062 175.839844 C 214.605469 175.988281 214.035156 176.078125 213.457031 176.140625 C 212.929688 176.195312 212.402344 176.199219 211.875 176.148438 C 211.195312 176.082031 210.539062 175.933594 209.886719 175.746094 C 208.96875 175.480469 208.128906 175.042969 207.320312 174.550781 C 206.695312 174.171875 206.082031 173.769531 205.515625 173.304688 C 205.246094 173.082031 204.988281 172.847656 204.746094 172.59375 C 204.449219 172.277344 204.164062 171.949219 203.898438 171.605469 C 203.679688 171.324219 203.492188 171.023438 203.296875 170.726562 C 203.125 170.464844 202.976562 170.199219 202.824219 169.929688 C 202.644531 169.613281 202.511719 169.277344 202.394531 168.933594 C 202.230469 168.445312 202.117188 167.945312 202.03125 167.441406 C 201.957031 166.996094 201.898438 166.546875 201.824219 166.101562 C 201.753906 165.683594 201.65625 165.273438 201.570312 164.859375 C 201.425781 164.179688 201.195312 163.53125 200.945312 162.886719 C 200.753906 162.386719 200.5 161.917969 200.257812 161.441406 C 200.148438 161.230469 200.027344 161.011719 199.828125 160.855469 C 199.792969 160.828125 199.765625 160.785156 199.738281 160.746094 C 199.546875 160.503906 199.355469 160.257812 199.164062 160.015625 C 198.90625 159.6875 198.683594 159.335938 198.453125 158.992188 C 198.273438 158.726562 198.101562 158.453125 197.933594 158.179688 C 197.703125 157.800781 197.511719 157.398438 197.34375 156.984375 C 197.136719 156.472656 196.953125 155.949219 196.84375 155.40625 C 196.71875 154.789062 196.617188 154.164062 196.621094 153.53125 C 196.628906 152.789062 196.835938 152.101562 197.195312 151.453125 C 197.414062 151.0625 197.664062 150.691406 197.980469 150.375 C 198.277344 150.074219 198.605469 149.8125 198.964844 149.582031 C 199.574219 149.191406 200.25 148.972656 200.933594 148.765625 C 201.683594 148.535156 202.414062 148.25 203.117188 147.898438 C 203.371094 147.769531 203.617188 147.625 203.84375 147.445312 C 204.109375 147.234375 204.382812 147.035156 204.644531 146.816406 C 204.867188 146.628906 205.070312 146.417969 205.277344 146.214844 C 205.554688 145.9375 205.816406 145.648438 206.074219 145.351562 C 206.40625 144.972656 206.730469 144.582031 207 144.15625 C 207.34375 143.605469 207.675781 143.046875 208.007812 142.492188 C 208.140625 142.265625 208.265625 142.035156 208.382812 141.800781 C 208.601562 141.367188 208.816406 140.925781 209.03125 140.488281 C 209.277344 139.980469 209.515625 139.464844 209.769531 138.960938 C 210.09375 138.316406 210.410156 137.667969 210.816406 137.074219 C 211.167969 136.5625 211.539062 136.070312 211.972656 135.625 C 212.25 135.34375 212.542969 135.070312 212.863281 134.832031 C 213.089844 134.65625 213.316406 134.480469 213.542969 134.304688 C 214.421875 133.648438 215.414062 133.285156 216.492188 133.128906 C 217.136719 133.035156 217.78125 133.046875 218.429688 133.097656 C 219.03125 133.144531 219.628906 133.1875 220.222656 133.285156 C 220.675781 133.355469 221.128906 133.421875 221.585938 133.46875 C 222.175781 133.527344 222.769531 133.570312 223.359375 133.648438 C 223.921875 133.71875 224.472656 133.832031 225.019531 133.980469 C 225.570312 134.125 226.113281 134.300781 226.632812 134.539062 C 227.339844 134.867188 227.984375 135.28125 228.542969 135.832031 C 228.683594 135.96875 228.820312 136.105469 228.953125 136.25 Z M 228.953125 136.25 " fill-opacity="1" fill-rule="nonzero"/></g></g></g><g clip-path="url(#6ac1cc3a2e)"><g clip-path="url(#11cf0fa5f1)"><g clip-path="url(#f00c8c5dfd)"><path fill="#b77cd7" d="M 74.03125 364.535156 C 74.046875 364.601562 74.0625 364.671875 74.074219 364.738281 C 74.140625 365.03125 74.203125 365.324219 74.269531 365.617188 C 74.332031 365.894531 74.332031 366.175781 74.332031 366.457031 C 74.335938 367.140625 74.300781 367.820312 74.214844 368.5 C 74.15625 368.953125 74.078125 369.40625 73.988281 369.855469 C 73.785156 370.875 73.523438 371.882812 73.355469 372.910156 C 73.246094 373.566406 73.199219 374.230469 73.246094 374.898438 C 73.269531 375.21875 73.296875 375.535156 73.347656 375.855469 C 73.375 376.042969 73.394531 376.230469 73.445312 376.414062 C 73.542969 376.753906 73.640625 377.09375 73.757812 377.429688 C 73.890625 377.820312 74.042969 378.203125 74.195312 378.585938 C 74.324219 378.898438 74.472656 379.203125 74.621094 379.503906 C 74.902344 380.058594 75.203125 380.597656 75.535156 381.125 C 75.921875 381.742188 76.28125 382.375 76.59375 383.035156 C 76.757812 383.386719 76.890625 383.753906 77.007812 384.125 C 77.152344 384.59375 77.25 385.070312 77.34375 385.550781 C 77.46875 386.1875 77.464844 386.824219 77.324219 387.460938 C 77.265625 387.726562 77.195312 387.984375 77.117188 388.246094 C 77.039062 388.496094 76.917969 388.722656 76.796875 388.949219 C 76.679688 389.171875 76.554688 389.390625 76.414062 389.605469 C 76.117188 390.066406 75.753906 390.46875 75.355469 390.84375 C 74.722656 391.433594 74.015625 391.925781 73.261719 392.351562 C 72.890625 392.558594 72.5 392.722656 72.09375 392.851562 C 71.957031 392.898438 71.820312 392.941406 71.683594 392.972656 C 71.464844 393.003906 71.261719 393.082031 71.054688 393.144531 C 70.820312 393.214844 70.566406 393.191406 70.328125 393.269531 C 69.988281 393.328125 69.644531 393.339844 69.300781 393.347656 C 68.882812 393.359375 68.464844 393.367188 68.046875 393.328125 C 67.652344 393.292969 67.261719 393.230469 66.871094 393.152344 C 66.5 393.074219 66.128906 392.996094 65.761719 392.902344 C 65.015625 392.703125 64.277344 392.488281 63.542969 392.25 C 62.878906 392.035156 62.203125 391.835938 61.535156 391.621094 C 60.949219 391.433594 60.359375 391.269531 59.757812 391.128906 C 58.988281 390.949219 58.214844 390.816406 57.425781 390.804688 C 57.015625 390.800781 56.613281 390.820312 56.207031 390.863281 C 55.902344 390.898438 55.601562 390.960938 55.308594 391.042969 C 54.996094 391.128906 54.679688 391.214844 54.375 391.332031 C 54.066406 391.453125 53.746094 391.546875 53.433594 391.65625 C 53.15625 391.753906 52.882812 391.855469 52.609375 391.960938 C 52.277344 392.082031 51.945312 392.210938 51.613281 392.335938 C 51.328125 392.441406 51.042969 392.550781 50.757812 392.652344 C 50.542969 392.730469 50.328125 392.8125 50.105469 392.871094 C 49.628906 393 49.160156 393.160156 48.675781 393.253906 C 47.644531 393.453125 46.605469 393.515625 45.5625 393.324219 C 45.011719 393.222656 44.480469 393.0625 43.953125 392.875 C 43.46875 392.703125 43.007812 392.492188 42.566406 392.226562 C 42.003906 391.886719 41.492188 391.484375 41 391.046875 C 40.308594 390.4375 39.761719 389.707031 39.261719 388.941406 C 38.875 388.351562 38.507812 387.746094 38.207031 387.105469 C 38.0625 386.800781 37.933594 386.488281 37.832031 386.164062 C 37.703125 385.765625 37.589844 385.363281 37.5 384.953125 C 37.429688 384.617188 37.390625 384.273438 37.339844 383.933594 C 37.300781 383.636719 37.28125 383.339844 37.261719 383.042969 C 37.238281 382.695312 37.257812 382.34375 37.300781 381.996094 C 37.359375 381.503906 37.46875 381.023438 37.605469 380.546875 C 37.722656 380.125 37.859375 379.710938 37.980469 379.292969 C 38.09375 378.898438 38.179688 378.5 38.273438 378.101562 C 38.429688 377.453125 38.496094 376.789062 38.550781 376.125 C 38.589844 375.609375 38.5625 375.09375 38.546875 374.578125 C 38.542969 374.347656 38.527344 374.109375 38.417969 373.890625 C 38.398438 373.851562 38.394531 373.800781 38.382812 373.757812 C 38.320312 373.464844 38.257812 373.171875 38.191406 372.878906 C 38.101562 372.488281 38.050781 372.089844 37.992188 371.691406 C 37.949219 371.386719 37.910156 371.078125 37.878906 370.769531 C 37.835938 370.34375 37.835938 369.914062 37.863281 369.484375 C 37.890625 368.949219 37.953125 368.417969 38.082031 367.898438 C 38.226562 367.304688 38.402344 366.722656 38.667969 366.171875 C 38.980469 365.527344 39.445312 365.011719 40.03125 364.597656 C 40.382812 364.347656 40.753906 364.128906 41.160156 363.984375 C 41.542969 363.847656 41.941406 363.753906 42.347656 363.703125 C 43.042969 363.613281 43.722656 363.703125 44.40625 363.808594 C 45.15625 363.917969 45.910156 363.972656 46.671875 363.957031 C 46.945312 363.953125 47.21875 363.929688 47.488281 363.867188 C 47.808594 363.789062 48.132812 363.730469 48.449219 363.648438 C 48.722656 363.582031 48.984375 363.480469 49.25 363.386719 C 49.605469 363.261719 49.957031 363.117188 50.304688 362.96875 C 50.753906 362.773438 51.195312 362.570312 51.609375 362.308594 C 52.136719 361.972656 52.65625 361.625 53.179688 361.277344 C 53.386719 361.136719 53.59375 360.984375 53.792969 360.832031 C 54.164062 360.542969 54.535156 360.25 54.902344 359.953125 C 55.332031 359.613281 55.75 359.265625 56.183594 358.929688 C 56.730469 358.503906 57.277344 358.070312 57.878906 357.71875 C 58.398438 357.421875 58.925781 357.144531 59.488281 356.941406 C 59.847656 356.808594 60.214844 356.6875 60.59375 356.617188 C 60.867188 356.558594 61.136719 356.496094 61.40625 356.4375 C 62.445312 356.234375 63.460938 356.328125 64.464844 356.640625 C 65.066406 356.824219 65.625 357.105469 66.167969 357.417969 C 66.671875 357.707031 67.175781 357.992188 67.652344 358.324219 C 68.019531 358.574219 68.386719 358.820312 68.765625 359.050781 C 69.257812 359.347656 69.753906 359.632812 70.238281 359.945312 C 70.695312 360.238281 71.128906 360.570312 71.546875 360.921875 C 71.96875 361.28125 72.367188 361.65625 72.722656 362.082031 C 73.199219 362.660156 73.589844 363.289062 73.847656 364 C 73.914062 364.175781 73.980469 364.355469 74.03125 364.535156 Z M 74.03125 364.535156 " fill-opacity="1" fill-rule="nonzero"/></g></g></g><g clip-path="url(#fca5eb62d0)"><g clip-path="url(#5c982f75d4)"><g clip-path="url(#1213a063ed)"><path fill="#b77cd7" d="M 133.644531 -10.019531 C 133.871094 -10.140625 134.054688 -10.09375 134.234375 -10.078125 C 165.207031 -6.867188 196.183594 -3.65625 227.15625 -0.441406 C 228 -0.355469 228 -0.351562 227.914062 0.492188 C 225.175781 26.90625 222.433594 53.320312 219.691406 79.738281 C 219.675781 79.914062 219.738281 80.179688 219.582031 80.242188 C 219.402344 80.316406 219.234375 80.105469 219.089844 79.976562 C 218.214844 79.199219 217.238281 78.550781 216.324219 77.820312 C 215.4375 77.109375 214.511719 76.433594 213.660156 75.683594 C 213.0625 75.15625 212.460938 74.632812 211.925781 74.027344 C 211.25 73.261719 210.460938 72.59375 209.730469 71.875 C 208.742188 70.90625 207.945312 69.78125 207.15625 68.65625 C 206.734375 68.058594 206.296875 67.464844 205.964844 66.820312 C 205.460938 65.847656 204.945312 64.882812 204.492188 63.886719 C 203.960938 62.707031 203.5 61.492188 203.121094 60.261719 C 202.742188 59.046875 202.359375 57.828125 202.042969 56.585938 C 201.59375 54.84375 200.96875 53.148438 200.496094 51.410156 C 200.222656 50.390625 199.917969 49.378906 199.695312 48.347656 C 199.460938 47.269531 199.039062 46.25 198.804688 45.179688 C 198.582031 44.15625 198.164062 43.195312 197.917969 42.1875 C 197.578125 40.792969 197.105469 39.4375 196.675781 38.074219 C 196.246094 36.707031 195.761719 35.355469 195.230469 34.019531 C 194.867188 33.113281 194.449219 32.242188 194.042969 31.367188 C 193.589844 30.402344 193.0625 29.472656 192.484375 28.570312 C 191.613281 27.207031 190.679688 25.886719 189.664062 24.632812 C 188.90625 23.703125 188.089844 22.820312 187.253906 21.957031 C 186.128906 20.792969 184.867188 19.777344 183.5625 18.839844 C 182.269531 17.90625 180.894531 17.097656 179.445312 16.414062 C 178.058594 15.761719 176.652344 15.144531 175.25 14.523438 C 174.398438 14.148438 173.515625 13.808594 172.628906 13.5 C 172.285156 13.382812 171.964844 13.199219 171.621094 13.074219 C 169.996094 12.496094 168.332031 12.046875 166.726562 11.40625 C 166.195312 11.195312 165.621094 11.085938 165.085938 10.886719 C 164.246094 10.574219 163.402344 10.257812 162.589844 9.878906 C 161.644531 9.4375 160.644531 9.148438 159.707031 8.695312 C 158.0625 7.902344 156.347656 7.269531 154.703125 6.46875 C 153.683594 5.96875 152.703125 5.390625 151.664062 4.9375 C 150.371094 4.367188 149.179688 3.613281 147.96875 2.90625 C 146.816406 2.234375 145.691406 1.511719 144.585938 0.753906 C 143.027344 -0.320312 141.628906 -1.582031 140.234375 -2.847656 C 139.582031 -3.441406 138.992188 -4.105469 138.335938 -4.695312 C 136.578125 -6.285156 135.152344 -8.160156 133.644531 -10.019531 Z M 133.644531 -10.019531 " fill-opacity="1" fill-rule="nonzero"/></g></g></g><g clip-path="url(#21ffbc34d5)"><g clip-path="url(#3208dfbaab)"><g clip-path="url(#8019df0389)"><path fill="#ffb246" d="M 87.589844 -11.894531 C 83.613281 -5.9375 76.972656 -2.15625 70.054688 -0.308594 C 67.300781 0.425781 64.476562 0.886719 61.71875 1.613281 C 58.957031 2.339844 56.226562 3.351562 53.941406 5.0625 C 51.625 6.796875 49.871094 9.175781 48.285156 11.601562 C 46.703125 14.027344 45.242188 16.554688 43.355469 18.75 C 41.128906 21.339844 38.296875 23.453125 35.070312 24.570312 C 31.847656 25.6875 28.222656 25.769531 25.042969 24.523438 C 22.046875 23.347656 19.554688 21.082031 16.5 20.074219 C 13.160156 18.972656 9.515625 19.492188 6.035156 18.96875 C 4.296875 18.707031 2.5625 18.160156 1.15625 17.105469 C 0.453125 16.578125 -0.160156 15.925781 -0.609375 15.167969 C -1.058594 14.414062 -1.339844 13.550781 -1.378906 12.671875 C -1.425781 11.710938 -1.183594 10.75 -0.765625 9.882812 C -0.347656 9.015625 0.242188 8.242188 0.910156 7.546875 C 2.238281 6.160156 3.863281 5.089844 5.308594 3.820312 C 9.464844 0.167969 11.980469 -4.9375 15.03125 -9.550781 C 18.722656 -15.140625 23.527344 -20.289062 29.742188 -22.789062 C 31.972656 -23.683594 34.328125 -24.21875 36.640625 -24.882812 C 38.953125 -25.546875 41.257812 -26.359375 43.230469 -27.738281 C 46.464844 -29.996094 48.503906 -33.558594 50.398438 -37.019531 C 51.445312 -38.925781 52.480469 -40.847656 53.742188 -42.617188 C 55.003906 -44.386719 56.507812 -46.015625 58.335938 -47.191406 C 60.164062 -48.371094 62.339844 -49.070312 64.511719 -48.917969 C 65.59375 -48.84375 66.667969 -48.554688 67.628906 -48.042969 C 68.585938 -47.53125 69.429688 -46.796875 70.042969 -45.898438 C 70.644531 -45.011719 71.011719 -43.988281 71.253906 -42.945312 C 71.492188 -41.902344 71.609375 -40.835938 71.75 -39.773438 C 71.890625 -38.710938 72.054688 -37.648438 72.386719 -36.628906 C 72.714844 -35.613281 73.21875 -34.632812 73.964844 -33.867188 C 74.644531 -33.167969 75.507812 -32.664062 76.417969 -32.3125 C 77.328125 -31.960938 78.289062 -31.757812 79.25 -31.601562 C 81.175781 -31.292969 83.167969 -31.15625 84.953125 -30.371094 C 86.578125 -29.65625 87.957031 -28.421875 88.910156 -26.925781 C 89.867188 -25.429688 90.40625 -23.683594 90.550781 -21.914062 C 90.839844 -18.375 89.558594 -14.84375 87.589844 -11.894531 Z M 87.589844 -11.894531 " fill-opacity="1" fill-rule="nonzero"/></g></g></g><g clip-path="url(#f1dfbf1ea5)"><path fill="#b77cd7" d="M -7.089844 38.921875 C -7.152344 38.832031 -7.140625 38.75 -7.140625 38.671875 C -7.140625 25.382812 -7.140625 12.09375 -7.140625 -1.199219 C -7.140625 -1.5625 -7.140625 -1.5625 -6.777344 -1.5625 C 4.554688 -1.5625 15.890625 -1.5625 27.226562 -1.558594 C 27.300781 -1.558594 27.410156 -1.597656 27.445312 -1.535156 C 27.484375 -1.460938 27.402344 -1.378906 27.351562 -1.3125 C 27.0625 -0.90625 26.828125 -0.464844 26.558594 -0.0429688 C 26.296875 0.363281 26.050781 0.785156 25.769531 1.179688 C 25.574219 1.457031 25.375 1.734375 25.144531 1.988281 C 24.847656 2.3125 24.597656 2.675781 24.328125 3.015625 C 23.957031 3.480469 23.515625 3.867188 23.074219 4.25 C 22.835938 4.457031 22.605469 4.667969 22.34375 4.835938 C 21.957031 5.09375 21.570312 5.355469 21.164062 5.589844 C 20.6875 5.871094 20.191406 6.117188 19.6875 6.332031 C 19.1875 6.546875 18.6875 6.761719 18.175781 6.953125 C 17.453125 7.21875 16.761719 7.5625 16.042969 7.835938 C 15.625 8 15.207031 8.171875 14.78125 8.3125 C 14.332031 8.457031 13.917969 8.683594 13.472656 8.828125 C 13.050781 8.96875 12.660156 9.1875 12.242188 9.335938 C 11.664062 9.542969 11.109375 9.804688 10.550781 10.046875 C 9.988281 10.289062 9.4375 10.554688 8.894531 10.839844 C 8.527344 11.03125 8.171875 11.246094 7.820312 11.460938 C 7.429688 11.695312 7.058594 11.960938 6.699219 12.242188 C 6.160156 12.675781 5.640625 13.128906 5.152344 13.613281 C 4.792969 13.976562 4.453125 14.363281 4.125 14.753906 C 3.679688 15.285156 3.304688 15.863281 2.960938 16.460938 C 2.625 17.050781 2.339844 17.667969 2.113281 18.316406 C 1.898438 18.933594 1.699219 19.554688 1.496094 20.175781 C 1.375 20.554688 1.269531 20.945312 1.175781 21.335938 C 1.140625 21.488281 1.078125 21.632812 1.042969 21.78125 C 0.867188 22.496094 0.75 23.226562 0.546875 23.933594 C 0.480469 24.167969 0.460938 24.417969 0.398438 24.652344 C 0.304688 25.023438 0.207031 25.394531 0.0820312 25.757812 C -0.0664062 26.175781 -0.144531 26.617188 -0.292969 27.035156 C -0.558594 27.765625 -0.75 28.523438 -1.019531 29.253906 C -1.1875 29.710938 -1.386719 30.152344 -1.535156 30.613281 C -1.71875 31.1875 -1.988281 31.726562 -2.234375 32.269531 C -2.46875 32.789062 -2.726562 33.300781 -3 33.800781 C -3.386719 34.511719 -3.863281 35.160156 -4.335938 35.808594 C -4.558594 36.113281 -4.816406 36.390625 -5.039062 36.695312 C -5.636719 37.511719 -6.367188 38.199219 -7.089844 38.921875 Z M -7.089844 38.921875 " fill-opacity="1" fill-rule="nonzero"/></g></svg>